<?xml version="1.0" standalone="no"?>
<!DOCTYPE svg PUBLIC "-//W3C//DTD SVG 1.1//EN" "http://www.w3.org/Graphics/SVG/1.1/DTD/svg11.dtd" >
<!--
2013-9-30: Created.
-->
<svg>
  <metadata>
    Created by iconfont
  </metadata>
  <defs>

    <font id="iconfont" horiz-adv-x="1024">
      <font-face
        font-family="iconfont"
        font-weight="500"
        font-stretch="normal"
        units-per-em="1024"
        ascent="896"
        descent="-128"
      />
      <missing-glyph/>

      <glyph glyph-name="x" unicode="x" horiz-adv-x="1001"
             d="M281 543q-27 -1 -53 -1h-83q-18 0 -36.5 -6t-32.5 -18.5t-23 -32t-9 -45.5v-76h912v41q0 16 -0.5 30t-0.5 18q0 13 -5 29t-17 29.5t-31.5 22.5t-49.5 9h-133v-97h-438v97zM955 310v-52q0 -23 0.5 -52t0.5 -58t-10.5 -47.5t-26 -30t-33 -16t-31.5 -4.5q-14 -1 -29.5 -0.5
t-29.5 0.5h-32l-45 128h-439l-44 -128h-29h-34q-20 0 -45 1q-25 0 -41 9.5t-25.5 23t-13.5 29.5t-4 30v167h911zM163 247q-12 0 -21 -8.5t-9 -21.5t9 -21.5t21 -8.5q13 0 22 8.5t9 21.5t-9 21.5t-22 8.5zM316 123q-8 -26 -14 -48q-5 -19 -10.5 -37t-7.5 -25t-3 -15t1 -14.5
t9.5 -10.5t21.5 -4h37h67h81h80h64h36q23 0 34 12t2 38q-5 13 -9.5 30.5t-9.5 34.5q-5 19 -11 39h-368zM336 498v228q0 11 2.5 23t10 21.5t20.5 15.5t34 6h188q31 0 51.5 -14.5t20.5 -52.5v-227h-327z"/>


      <glyph glyph-name="shujuhuizong" unicode="&#58944;"
             d="M547.328 335.328 547.328 812C810.609778 812 1024 598.609778 1024 335.328L547.328 335.328zM953.400889 229.400889l-1.763556 0C933.432889-17.326222 728.064-212 476.672-212 213.390222-212 0 1.390222 0 264.672c0 251.335111 194.673778 456.817778 441.400889 474.908444L441.400889 741.400889 512 741.400889 512 300l441.400889 0L953.400889 229.400889zM441.400889 229.400889 441.400889 668.981333C233.699556 651.061333 70.599111 477.038222 70.599111 264.672c0-224.256 181.816889-406.072889 406.072889-406.072889 212.366222 0 386.389333 163.043556 404.252444 370.801778L441.400889 229.400889z"
             horiz-adv-x="1024"/>


      <glyph glyph-name="guanzhu" unicode="&#58945;"
             d="M558.545455-25.818182 230.260364-198.408727 292.957091 167.159273 27.322182 426.045091 394.379636 479.386182 558.545455 812 722.711273 479.386182 1089.768727 426.045091 824.133818 167.159273 886.830545-198.408727Z"
             horiz-adv-x="1118"/>


      <glyph glyph-name="fanhui2" unicode="&#58913;"
             d="M720.13824-57.84576c-6.5536 0-13.09696 2.49856-18.10432 7.49568L285.75744 365.88544c-4.80256 4.80256-7.49568 11.3152-7.49568 18.10432 0 6.79936 2.69312 13.30176 7.49568 18.10432l416.27648 416.256c9.99424 10.00448 26.2144 10.00448 36.1984 0 10.00448-9.99424 10.00448-26.20416 0-36.1984L340.06016 383.98976l398.17216-398.14144c10.00448-9.99424 10.00448-26.20416 0.01024-36.1984C733.24544-55.3472 726.69184-57.84576 720.13824-57.84576z"
             horiz-adv-x="1024"/>


      <glyph glyph-name="gt-icon-trading-step3" unicode="&#58888;"
             d="M1016.283429 626.3222860000001c-40.557714 0-77.421714-15.616-105.142857-40.96L911.140571 723.090286c0 90.916571-74.898286 164.827429-166.985143 164.827429l-317.952 0c-92.086857 0-166.985143-73.910857-166.985143-164.827429l0-137.728c-27.721143 25.344-64.585143 40.96-105.142857 40.96-84.845714 0-154.075429-68.315429-154.075429-152.137143 0-75.52 56.173714-138.532571 129.499429-150.235429l0-380.196571 129.755429 0 0-46.043429c0-13.238857 10.934857-24.210286 24.576-24.210286 13.677714 0 24.576 10.971429 24.576 24.210286l0 46.043429 553.654857 0 0-46.043429c0-13.238857 11.081143-24.210286 24.576-24.210286 13.677714 0 24.576 10.971429 24.576 24.210286l0 46.043429 129.755429 0L1040.969143 323.949714c73.362286 11.666286 129.536 74.678857 129.536 150.198857C1170.432 558.0434290000001 1101.165714 626.3222860000001 1016.283429 626.3222860000001L1016.283429 626.3222860000001zM308.333714 723.090286c0 64.146286 52.918857 116.260571 117.869714 116.260571l317.952 0c64.950857 0 117.869714-52.077714 117.869714-116.260571l0-248.905143 0-87.771429 0-116.297143L308.333714 270.116571l0 116.297143 0 87.771429L308.333714 723.090286 308.333714 723.090286zM178.834286-7.899429000000055L178.834286 370.57828600000005 154.038857 370.57828600000005c-57.709714 0-104.923429 46.445714-104.923429 103.606857 0 57.161143 47.213714 103.570286 104.923429 103.570286 57.965714 0 105.142857-46.409143 105.142857-103.570286l0-87.771429 0-116.297143 0-278.016L178.834286-7.899429000000055 178.834286-7.899429000000055zM308.333714-7.899429000000055l0 229.376 553.654857 0 0-229.376L308.333714-7.899429000000055 308.333714-7.899429000000055zM1016.283429 370.57828600000005l-24.758857 0 0-378.477714-80.384 0 0 278.016 0 116.297143 0 87.771429c0 57.161143 47.213714 103.570286 105.142857 103.570286 57.746286 0 104.96-46.409143 104.96-103.570286C1121.28 417.024 1074.066286 370.57828600000005 1016.283429 370.57828600000005L1016.283429 370.57828600000005zM1016.283429 370.57828600000005"
             horiz-adv-x="1173"/>


      <glyph glyph-name="arrow-left" unicode="&#58914;"
             d="M340.154 348.727l421.05 421.05c9.076 9.076 9.076 23.831 0 32.908-9.076 9.076-23.831 9.076-32.908 0l-437.481-437.481c-9.076-9.076-9.076-23.831 0-32.908l437.481-437.481c9.076-9.076 23.831-9.076 32.908 0 9.076 9.076 9.076 23.831 0 32.908l-421.05 421.004z"
             horiz-adv-x="1024"/>


      <glyph glyph-name="htmal5icon37" unicode="&#58922;"
             d="M741.711775 685.520241 649.950885 777.281131 256.69022 384.021489 649.950885-9.239176 741.711775 82.521714 440.212 384.021489Z"
             horiz-adv-x="1024"/>


      <glyph glyph-name="jiedianhuiyuanmingdan" unicode="&#59135;"
             d="M622.48921 636.62533c0 143.186017-116.088663 259.37467-259.37467 259.37467S103.739869 779.811347 103.739869 636.62533c0-95.490675 51.594961-178.882531 128.387462-223.878137C97.440484 368.851479 0.049995 242.363832 0.049995 92.97842l0-28.997168 511.950005 0L512 394.149009c0 3.999609 0.19998 7.999219 0.599941 11.898838-6.099404 2.399766-12.298799 4.599551-18.598184 6.599356C570.894249 457.742799 622.48921 541.134655 622.48921 636.62533zM1009.951372 302.157992 878.564203 433.845132c-8.999121 9.099111-21.29792 14.198613-34.19666 14.198613L629.988478 448.043746c-29.79709 0-53.994727-24.097647-53.994727-53.794747l0-466.354458c0-29.6971 24.197637-53.794747 53.994727-53.794747l339.9668 0c29.79709 0 53.994727 24.097647 53.994727 53.794747L1023.950005 268.361293C1023.950005 280.960062 1018.950493 293.158871 1009.951372 302.157992zM691.682453 319.956254l91.891026 0c17.698272 0 31.996875-14.298604 31.996875-31.996875s-14.298604-31.996875-31.996875-31.996875l-91.891026 0c-17.698272 0-31.996875 14.298604-31.996875 31.996875S673.984181 319.956254 691.682453 319.956254zM898.56225-0.012499 691.682453-0.012499c-17.698272 0-31.996875 14.298604-31.996875 31.996875s14.298604 31.996875 31.996875 31.996875l206.879797 0c17.698272 0 31.996875-14.298604 31.996875-31.996875S916.160531-0.012499 898.56225-0.012499zM898.56225 127.975002 691.682453 127.975002c-17.698272 0-31.996875 14.298604-31.996875 31.996875s14.298604 31.996875 31.996875 31.996875l206.879797 0c17.698272 0 31.996875-14.298604 31.996875-31.996875S916.160531 127.975002 898.56225 127.975002z"
             horiz-adv-x="1024"/>


      <glyph glyph-name="b4" unicode="&#58908;"
             d="M546.24 823.36l2.048-1.152C549.312 821.568 550.4 820.928 551.36 820.352l158.144-91.264 158.08-91.264 0-0.064c24.32-13.376 41.024-39.04 41.408-68.672l0.064 0 0-185.536 0-183.104-0.064 0c0-0.384 0-0.768 0-1.216 0-28.608-14.976-53.76-37.696-67.776l0.064-0.128-161.856-93.376-157.248-90.88c-12.288-7.68-26.752-12.096-42.24-12.096-15.552 0-30.016 4.416-42.24 12.096l-157.312 90.88-160.192 92.352 0 0.064c-23.552 13.888-39.36 39.552-39.36 68.8 0 0.64 0 1.216 0 1.792L110.912 200.96 110.912 383.488 110.912 571.2l0.192 0c1.152 27.776 16.576 51.904 39.104 65.216L150.144 636.48l160.32 92.544 158.144 91.264c12.096 7.36 26.24 11.584 41.408 11.584C523.008 831.936 535.36 828.8 546.24 823.36L546.24 823.36 546.24 823.36zM544.128 797.76 544.128 797.76C533.824 802.944 522.24 805.888 510.016 805.888c-14.336 0-27.648-4.032-39.04-10.88L322.048 708.992l-151.04-87.168 0.064-0.064c-21.248-12.544-35.712-35.264-36.8-61.44L134.08 560.32l0-176.832 0-171.84 0.064 0c0-0.64-0.064-1.216-0.064-1.728 0-27.584 14.912-51.712 37.056-64.768l0-0.064 150.912-87.104 148.16-85.568c11.584-7.168 25.152-11.392 39.808-11.392 14.656 0 28.16 4.16 39.808 11.456l148.096 85.504 152.512 88-0.064 0.064c21.248 13.248 35.456 36.928 35.456 63.872 0 0.384 0 0.768 0 1.152l0.064 0L885.888 383.488 885.888 558.272l-0.064 0c-0.448 27.904-16.064 52.096-38.976 64.704l0.064 0.064-148.928 85.952L549.056 795.008C548.032 795.52 547.072 796.096 546.048 796.672L544.128 797.76zM700.8 511.616 700.8 511.616l-196.608 107.52L307.968 511.808 307.584 511.808l0-215.168 196.608-107.456 94.976 51.84c-9.216 3.2-17.792 7.488-25.728 12.8l-56.96-31.104 0 188.16 159.744 87.36 0-26.944 0-31.168c8.896-3.904 17.088-8.96 24.576-14.976L700.8 511.616 700.8 511.616 700.8 511.616zM504.192 593.088 652.032 512l-56.32-31.04L447.168 561.728 504.192 593.088 504.192 593.088zM421.44 546.56 571.968 467.2 504.192 431.424 356.416 511.616 421.44 546.56 421.44 546.56zM332.224 484.416l7.808 0L332.224 484.736 332.224 498.24l159.68-87.36 0-188.16L332.224 310.08 332.224 484.416zM564.352 409.152c37.056 38.144 97.856 39.04 135.936 2.112 38.208-36.928 39.04-97.792 2.112-135.872-36.928-38.144-97.856-39.04-135.936-2.112C528.384 310.208 527.488 371.072 564.352 409.152L564.352 409.152zM571.968 401.92C538.944 368 539.84 313.664 573.76 280.768c33.984-33.024 88.256-32.128 121.216 1.792s32.192 88.256-1.856 121.216C659.136 436.672 604.8 435.904 571.968 401.92zM703.232 283.776l50.112-48.704c2.56-2.496 2.624-6.72 0.064-9.28l0 0c-2.368-2.624-6.656-2.752-9.28-0.128l-50.176 48.704L703.232 283.776z"
             horiz-adv-x="1024"/>


      <glyph glyph-name="4zhanghu" unicode="&#59513;"
             d="M512-106.666667c-66.133333 0-130.133333 12.8-192 38.4-57.6 25.6-110.933333 59.733333-155.733333 104.533333S85.333333 134.4 59.733333 192C34.133333 253.866667 21.333333 317.866667 21.333333 384c0 66.133333 12.8 130.133333 38.4 192C85.333333 633.6 119.466667 686.933333 164.266667 731.733333 209.066667 776.533333 262.4 810.666667 320 836.266667 381.866667 861.866667 445.866667 874.666667 512 874.666667c66.133333 0 130.133333-12.8 192-38.4 57.6-25.6 110.933333-59.733333 155.733333-104.533333 44.8-44.8 81.066667-98.133333 104.533333-155.733333 25.6-59.733333 38.4-123.733333 38.4-192 0-66.133333-12.8-130.133333-38.4-192-25.6-57.6-59.733333-110.933333-104.533333-155.733333-44.8-44.8-98.133333-81.066667-155.733333-104.533333C642.133333-93.866667 578.133333-106.666667 512-106.666667L512-106.666667zM512 832C264.533333 832 64 631.466667 64 384c0-247.466667 200.533333-448 448-448 247.466667 0 448 200.533333 448 448C957.866667 631.466667 757.333333 832 512 832L512 832zM512 832M509.866667 330.666667c-108.8 0-198.4 89.6-198.4 198.4 0 108.8 89.6 198.4 198.4 198.4 108.8 0 198.4-89.6 198.4-198.4C708.266667 420.266667 620.8 330.666667 509.866667 330.666667L509.866667 330.666667zM509.866667 684.8c-85.333333 0-155.733333-70.4-155.733333-155.733333 0-85.333333 70.4-155.733333 155.733333-155.733333 85.333333 0 155.733333 70.4 155.733333 155.733333C665.6 614.4 595.2 684.8 509.866667 684.8L509.866667 684.8zM509.866667 684.8M221.866667 32l-42.666667 4.266667c0 4.266667 8.533333 83.2 51.2 164.266667 25.6 49.066667 59.733333 87.466667 100.266667 115.2 51.2 34.133333 110.933333 53.333333 181.333333 53.333333 68.266667 0 130.133333-17.066667 181.333333-51.2 40.533333-27.733333 74.666667-64 100.266667-110.933333 44.8-78.933333 51.2-157.866667 51.2-160l-42.666667-4.266667c0 0-6.4 72.533333-46.933333 145.066667-53.333333 91.733333-134.4 138.666667-243.2 138.666667-108.8 0-192-49.066667-243.2-142.933333C228.266667 106.666667 221.866667 34.133333 221.866667 32L221.866667 32zM221.866667 32"
             horiz-adv-x="1024"/>


      <glyph glyph-name="jiaoyiliebiaohuiyuan" unicode="&#59067;"
             d="M960.056245 601.828728 682.183381 879.701592C670.284543 891.500439 654.686066 896 637.887706 896L361.414706 896c-34.896592 0-63.093838-28.297237-63.093838-63.293819l0-76.092569 26.197442 0c0 42.49585 0 70.293135 0 73.992774 0 19.098135 14.698565 43.095791 36.996387 43.095791l279.372718 0c15.898447 0 36.196465-29.397129 36.196465-29.397129l0-201.980275c0-19.498096 16.99834-36.396446 36.396446-36.396446l207.379748 0c0 0 29.297139-32.496826 29.297139-45.295577l0-412.05976c0-40.796016-18.698174-56.594473-55.694561-56.594473l-98.290401 0 0-23.797676c50.695049 0 88.791329 0 100.790157 0 63.69378 0 79.392247 24.297627 79.392247 76.59252 0 31.496924 0 407.96016 0 407.96016C976.354653 569.531882 971.855092 589.92989 960.056245 601.828728zM709.380725 405.647886 431.507861 683.52075c-11.798848 11.898838-27.497315 16.298408-44.295674 16.298408L110.739186 699.819158c-34.896592 0-63.093838-28.297237-63.093838-63.293819l0-701.23152c0-34.896592 28.297237-63.293819 63.093838-63.293819 0 0 486.352505 0 535.647691 0 63.69378 0 79.392247 24.297627 79.392247 76.59252 0 31.496924 0 407.96016 0 407.96016C725.779123 373.45103 721.179572 393.849038 709.380725 405.647886zM699.481691-47.507861c0-40.796016-18.698174-56.594473-55.694561-56.594473-144.885851 0-489.852163 0-512.349966 0-52.494874 0-57.694366 40.496045-57.694366 40.496045s0 679.133678 0 698.231813c0 19.098135 14.698565 43.095791 36.996387 43.095791 22.297822 0 263.37428 0 279.372718 0 15.898447 0 36.196465-29.397129 36.196465-29.397129l0-201.980275c0-19.498096 16.99834-36.396446 36.396446-36.396446l207.379748 0c0 0 29.297139-32.496826 29.297139-45.295577C699.481691 353.852944 699.481691 91.478567 699.481691-47.507861zM238.226736 285.459623l287.871888 0 0-22.197832-287.871888 0 0 22.197832ZM264.996431 376.841559l98.274103-94.845778-15.414175-15.97134-98.274103 94.845778 15.414175 15.97134ZM513.601104 360.831203l-98.274103-94.845778-15.414175 15.97134 98.274103 94.845778 15.414175-15.97134ZM238.226736 140.173811l287.871888 0 0-22.197832-287.871888 0 0 22.197832ZM371.013768 276.960453l22.197832 0 0-315.369202-22.197832 0 0 315.369202Z"
             horiz-adv-x="1024"/>


      <glyph glyph-name="fanhui3" unicode="&#58915;"
             d="M238.933333 376.558933 738.304-128 785.066667-80.554667 325.154133 384 785.066667 848.554667 738.304 896 238.933333 391.441067 238.933333 376.558933 238.933333 376.558933Z"
             horiz-adv-x="1024"/>


      <glyph glyph-name="jujue" unicode="&#59013;"
             d="M932.396-61.063h-839.111c-14.145 0-25.611 11.466-25.611 25.611l0 839.127c0 14.145 11.467 25.611 25.611 25.611h839.111c14.145 0 25.611-11.467 25.611-25.611v-839.127c-0-14.145-11.466-25.611-25.611-25.611zM118.897-9.84h787.887l0 787.904h-787.887v-787.904zM233.137 78.805c-6.55 0-13.098 2.496-18.099 7.491-10.008 9.996-10.018 26.212-0.021 36.221l261.273 261.59-261.274 261.604c-9.996 10.008-9.985 26.224 0.023 36.221 10.008 9.996 26.224 9.985 36.221-0.023l279.349-279.705c9.987-10 9.987-26.199 0-36.198l-279.349-279.688c-5.002-5.008-11.562-7.512-18.122-7.512zM792.545 78.805c-6.559-0.001-13.117 2.503-18.12 7.511l-279.405 279.688c-9.99 10-9.991 26.202-0.001 36.202l279.406 279.703c9.998 10.007 26.213 10.016 36.221 0.019 10.007-9.998 10.016-26.214 0.019-36.221l-261.325-261.602 261.324-261.589c9.997-10.007 9.988-26.223-0.019-36.221-4.999-4.994-11.55-7.491-18.1-7.491z"
             horiz-adv-x="1024"/>


      <glyph glyph-name="pingcang" unicode="&#58930;"
             d="M813.525441 459.574811l-23.729975-50.555164 133.094207-62.420151-410.631738-175.911335-410.631738 175.911335 133.094207 62.420151-23.729975 50.555164L5.15869 363.107305l0-273.926448 507.099244-217.180856 507.099244 217.180856 0 273.926448L813.525441 459.574811zM512.257935-67.127456l-450.869521 193.450882 0 176.943073 450.869521-193.450882 450.869521 193.450882 0-176.943073L512.257935-67.127456zM418.885642 370.329471 605.114358 370.329471 605.114358 623.621159 726.343577 623.621159 511.742065 896 297.656423 623.621159 418.885642 623.621159Z"
             horiz-adv-x="1024"/>


      <glyph glyph-name="liudongzijintubiao22" unicode="&#59003;"
             d="M473.771837 104.67527 771.103686 104.67527 771.103686 26.361647 1023.979021 183.013453 771.103686 339.652979 771.103686 261.326053 473.771837 261.326053ZM231.79676 369.006518c-102.730733 0-186.004321-83.273589-186.004321-186.005344 0-102.733802 83.273589-186.000228 186.004321-186.000228 102.731756 0 186.006368 83.266425 186.006368 186.000228C417.803128 285.732929 334.52954 369.006518 231.79676 369.006518L231.79676 369.006518zM145.82062 274.76411c-1.567705 2.203178-2.12643 5.174859-1.651616 8.946766 0.487094 3.451612 1.885953 6.106068 4.220115 7.989975 2.204202 1.877767 5.16872 2.600221 8.946766 2.117221 3.76986-0.636496 6.661723-2.40477 8.704243-5.414313l67.001997-70.974471 63.470567 68.406996c2.801812 3.614317 5.936199 5.864568 9.387811 6.825452 3.445472 0.753153 6.417153 0.156566 8.945743-1.88493 2.645247-2.209318 4.211928-5.01727 4.693906-8.469905 0.318248-3.451612-0.807389-6.89913-3.297093-10.351766l-71.448262-76.868715 0-9.629311 58.777685 0c2.970658 0 5.689582-1.172709 8.224312-3.53143 2.483564-2.208295 3.731998-5.259794 3.731998-9.146311 0-3.76986-1.248434-6.703679-3.731998-8.712429-2.534729-2.040473-5.253654-3.043313-8.224312-3.043313l-58.777685 0 0-14.537088 59.96779 0c5.454222 0 9.91993-4.457522 9.91993-9.91379l0-0.007163c0-5.460362-4.466732-9.921977-9.91993-9.921977l-59.96779 0 0-56.0649c0-3.01159-1.36509-5.409197-3.76986-7.541767-2.886747-2.562359-5.734608-3.853771-8.711406-3.77293-2.965541 0.078795-5.716188 1.182942-8.224312 3.52529-2.501984 2.347464-3.770883 4.941546-3.770883 7.788383l0 56.0649-59.167564 0c-5.455245 0-9.920954 4.462638-9.920954 9.921977l0 0.007163c0 5.455245 4.464685 9.91379 9.920954 9.91379l59.167564 0 0 14.537088-60.376089 0c-3.452635 0-6.221702 1.248434-8.270361 3.733021-2.321882 2.684132-3.484358 5.493108-3.484358 8.463766 0 3.290953 1.001817 6.175653 3.042289 8.705266 2.007727 2.359744 4.941546 3.53143 8.712429 3.53143l60.376089 0 0.240477 10.110265L145.82062 274.76411 145.82062 274.76411zM231.79676 343.541543c88.658226 0 160.53423-71.885214 160.53423-160.54037 0-88.650039-71.876004-160.53423-160.53423-160.53423-88.656179 0-160.533206 71.884191-160.533206 160.53423C71.263554 271.656329 143.140581 343.541543 231.79676 343.541543zM552.7414 667.715737 255.402388 667.715737 255.402388 746.03857 2.52603 589.386764 255.402388 432.743144 255.402388 511.062907 552.7414 511.062907ZM785.378808 775.392108c-102.731756 0-185.997158-83.270519-185.997158-186.003298 0-102.731756 83.265402-186.003298 185.997158-186.003298 102.732779 0 186.001251 83.271542 186.001251 186.003298C971.379036 692.122613 888.110564 775.392108 785.378808 775.392108L785.378808 775.392108zM699.399598 681.150724c-1.565658 2.207271-2.124384 5.173836-1.650593 8.945743 0.488117 3.448542 1.885953 6.101975 4.220115 7.986905 2.203178 1.88186 5.175883 2.604314 8.945743 2.12336 3.77293-0.64059 6.65763-2.406816 8.705266-5.41636l67.001997-70.973448 63.470567 68.409043c2.801812 3.608178 5.936199 5.857405 9.388834 6.820336 3.446495 0.760317 6.417153 0.158612 8.946766-1.885953 2.645247-2.206248 4.211928-5.019317 4.692882-8.463766 0.318248-3.451612-0.805342-6.9022-3.289929-10.353812l-71.453379-76.870762 0-9.630335 58.776661 0c2.965541 0 5.693676-1.164522 8.217149-3.529383 2.496867-2.207271 3.738138-5.253654 3.738138-9.147334 0-3.76986-1.240247-6.699586-3.738138-8.705266-2.523473-2.044566-5.251607-3.048429-8.217149-3.048429l-58.776661 0 0-14.538111 59.96779 0c5.453199 0 9.91379-4.455475 9.91379-9.91379l0-0.00307c0-5.461385-4.460592-9.920954-9.91379-9.920954l-59.96779 0 0-56.066947c0-3.009544-1.367137-5.408173-3.771907-7.543813-2.89391-2.560312-5.734608-3.851725-8.706289-3.770883-2.964518 0.077771-5.720282 1.182942-8.229428 3.530406-2.503007 2.343371-3.770883 4.933359-3.770883 7.78429l0 56.066947-59.166541 0c-5.455245 0-9.914814 4.460592-9.914814 9.920954l0 0.00307c0 5.457292 4.459568 9.91379 9.914814 9.91379l59.166541 0 0 14.538111-60.378136 0c-3.452635 0-6.221702 1.248434-8.261151 3.735068-2.329045 2.685155-3.493567 5.494131-3.493567 8.460696 0 3.288906 1.001817 6.175653 3.048429 8.705266 2.00261 2.365884 4.928243 3.529383 8.706289 3.529383l60.376089 0 0.2415 10.112312L699.399598 681.150724 699.399598 681.150724zM785.378808 749.92304c88.658226 0 160.53423-71.876004 160.53423-160.533206 0-88.655156-71.876004-160.536276-160.53423-160.536276-88.656179 0-160.532183 71.879074-160.532183 160.536276C624.846625 678.046013 696.722629 749.92304 785.378808 749.92304z"
             horiz-adv-x="1024"/>


      <glyph glyph-name="fanhui4" unicode="&#58971;"
             d="M877.216 404.192M758.528-53.984c12.512 12.512 13.248 31.872 2.048 43.776L384.096 366.304c-16.16 15.328-16.096 19.328 0 35.424L760.576 778.176c11.232 11.872 10.464 31.264-2.048 43.776-12.736 12.736-32.608 13.44-44.448 1.632L295.872 405.408C290.72 400.256 288.416 393.536 288 386.624l0-5.248c0.448-6.944 2.752-13.632 7.872-18.784l418.176-418.176C725.92-67.392 745.824-66.688 758.528-53.984z"
             horiz-adv-x="1024"/>


      <glyph glyph-name="shouye1" unicode="&#59075;"
             d="M705.3312-31.061333330000025L152.64426667-31.061333330000025c-17.47626667 0-31.1296 14.19946667-31.1296 31.1296s14.19946667 31.1296 31.1296 31.1296l552.1408 0c17.47626667 0 31.1296-14.19946667 31.1296-31.1296S722.26133333-31.061333330000025 705.3312-31.061333330000025zM871.35573333-31.061333330000025l-166.02453333 0c-17.47626667 0-31.1296 14.19946667-31.1296 31.1296s14.19946667 31.1296 31.1296 31.1296l166.02453333 0c17.47626667 0 31.1296-14.19946667 31.1296-31.1296S888.28586667-31.061333330000025 871.35573333-31.061333330000025zM705.3312 0.614400000000046M152.64426667-31.061333330000025c-17.47626667 0-31.1296 14.19946667-31.1296 31.1296L121.51466667 403.11466667c0 17.47626667 14.19946667 31.1296 31.1296 31.1296 17.47626667 0 31.1296-14.19946667 31.1296-31.1296l0-402.50026667C184.32-16.86186667000004 170.12053333-31.061333330000025 152.64426667-31.061333330000025zM871.35573333-31.061333330000025c-17.47626667 0-31.1296 14.19946667-31.1296 31.1296L840.22613333 403.11466667c0 17.47626667 14.19946667 31.1296 31.1296 31.1296s31.1296-14.19946667 31.1296-31.1296l0-402.50026667C902.48533333-16.86186667000004 888.28586667-31.061333330000025 871.35573333-31.061333330000025zM783.9744 486.12693333c-17.47626667 0-31.1296 14.19946667-31.1296 31.1296L752.8448 657.06666667c0 17.47626667 14.19946667 31.1296 31.1296 31.1296s31.1296-14.19946667 31.1296-31.1296l0-139.264C815.104 500.3264 801.45066667 486.12693333 783.9744 486.12693333zM105.6768 356.1472c-8.192 0-16.93013333 3.2768-22.9376 9.8304-12.01493333 12.56106667-10.92266667 32.22186667 1.6384 44.2368l407.41546667 380.65493333c12.56106667 12.01493333 32.22186667 10.92266667 44.2368-1.6384 12.01493333-12.56106667 10.92266667-32.22186667-1.6384-44.2368l-407.41546667-380.65493333C120.96853333 358.87786667 113.32266667 356.1472 105.6768 356.1472zM918.3232 356.1472c-7.64586667 0-15.29173333 2.73066667-21.2992 8.192L489.60853333 744.9941333300001c-12.56106667 12.01493333-13.1072 31.67573333-1.6384 44.2368 12.01493333 12.56106667 31.67573333 13.1072 44.2368 1.6384l407.41546667-380.65493333c12.56106667-12.01493333 13.1072-31.67573333 1.6384-44.2368C935.25333333 359.424 926.5152 356.1472 918.3232 356.1472zM351.98293333 101.64906667000002c-17.47626667 0-31.1296 14.19946667-31.1296 31.1296l0 244.1216c0 17.47626667 14.19946667 31.1296 31.1296 31.1296 17.47626667 0 31.1296-14.19946667 31.1296-31.1296l0-244.1216C383.11253333 115.84853333000001 369.4592 101.64906667000002 351.98293333 101.64906667000002zM715.1616-31.061333330000025l-189.50826667 0c-17.47626667 0-31.1296 14.19946667-31.1296 31.1296l0 376.832c0 17.47626667 14.19946667 31.1296 31.1296 31.1296l189.50826667 0c17.47626667 0 31.1296-14.19946667 31.1296-31.1296l0-376.832C746.2912-16.86186667000004 732.63786667-31.061333330000025 715.1616-31.061333330000025zM557.32906667 31.744000000000028l126.70293333 0L684.032 345.77066666999997l-126.70293333 0L557.32906667 31.744000000000028z"
             horiz-adv-x="1024"/>


      <glyph glyph-name="fanhui5" unicode="&#58928;"
             d="M665.6-115.2l51.2 38.4-371.2 460.8 371.2 460.8-51.2 38.4-403.2-499.2z" horiz-adv-x="1024"/>


      <glyph glyph-name="tourongtong-copy" unicode="&#58894;"
             d="M288.352 322.491v-285.151h134.189v285.151l-67.099 55.915-67.090-55.915zM64.696 37.34h134.189v218.060l-134.189-106.237v-111.823zM735.652 389.588v-352.249h134.193l-0 464.074-134.193-111.825zM512.005 249.807v-212.467h134.188l-0 279.561-106.237-89.462-27.952 22.367zM959.304 730.66h-257.199l106.237-100.642-273.977-223.657-178.923 150.965-290.747-229.242v-100.646l290.747 229.246 184.515-150.965 329.889 268.381 89.46-83.867-0 240.428zM959.304 730.66z"
             horiz-adv-x="1024"/>


      <glyph glyph-name="icon_wrong" unicode="&#58921;"
             d="M834.976 7.264c-35.264-13.824-75.328-5.664-102.368 20.864l-220.32 220.064-220.224-220.064c-37.536-37.504-98.368-37.504-135.904 0-37.536 37.472-37.536 98.304 0 135.776l220.288 220.096-220.288 220.064c-37.536 37.504-37.536 98.304 0 135.808 37.536 37.504 98.368 37.504 135.904 0l220.224-220.16 220.32 220.16c37.696 36.352 97.632 35.84 134.688-1.216 37.056-37.056 37.568-96.928 1.12-134.592l-220.224-220.064 220.224-220.096c18.88-18.976 28.864-45.056 27.456-71.808-1.792-37.792-25.632-71.008-60.896-84.832z"
             horiz-adv-x="1024"/>


      <glyph glyph-name="youjiantou" unicode="&#58929;"
             d="M530.850448 322.836687c32.005172 31.883636 32.111192 87.434343-0.069818 119.489939C399.437114 573.154263 268.507336 704.396929 137.436629 835.493495c-12.621576 12.625455-27.585939 20.686869-45.26804 23.540364-3.529697 0.570182-7.085253 0.999434-10.630465 1.499798-1.025293 0-2.055758 0-3.081051 0-4.035232-0.575354-8.111838-0.943838-12.091475-1.757091-33.298101-6.818909-54.838303-26.616242-63.959919-59.278222-3.201293-11.479919-2.806949-24.85398-1.135192-35.701657 1.751919-11.344162 7.11499-21.818182 14.479515-30.904889 3.444364-4.252444 7.050343-8.418263 10.918788-12.291879 111.045818-111.127273 222.142061-222.222222 333.247354-333.293899 1.444202-1.444202 3.227152-2.554828 5.187232-4.080485-2.121697-2.222545-3.475394-3.696485-4.879515-5.100606C252.653437 270.549333 145.164468 162.887111 37.416912 55.493818c-15.829333-15.773737-33.541172-31.162182-36.146424-54.273293-1.233455-10.908444-1.859232-22.111677 0-32.929616 0.919273-5.363071 3.262061-10.423596 5.494949-15.358707 23.655434-52.318384 89.514667-64.241778 130.66602-23.186101C268.668953 60.684929 399.501761 192.012929 530.850448 322.836687L530.850448 322.836687zM78.451902 860.533657l-12.091475-1.757091C70.345235 859.589818 74.421841 859.958303 78.451902 860.533657L78.451902 860.533657zM551.467498 859.558788c-38.000485-2.858667-70.434909-37.034667-71.651556-75.106263-0.79903-24.979394 8.131232-45.650747 25.691798-63.197091 111.383273-111.252687 222.661818-222.615273 334.015354-333.893818 1.534707-1.534707 3.686141-2.448808 6.595232-4.327434-3.35903-2.667313-5.116121-3.803798-6.565495-5.253172-68.050747-68.000323-136.075636-136.035556-204.100525-204.065616C591.916791 130.185051 548.391619 86.639192 504.845761 43.119192c-19.449535-19.439192-28.328081-42.706747-24.045899-70.054788 4.829091-30.919111 22.440081-52.516202 51.712-63.010909 29.450343-10.550303 56.692364-4.803232 80.49002 15.848727 1.944566 1.682101 3.798626 3.470222 5.616485 5.288081 130.121697 130.111354 259.955071 260.509737 390.546101 390.141414 33.272242 33.035636 33.454545 88.934141 1.206303 121.050505C879.016912 573.195636 748.093599 704.442182 617.028064 835.543919c-12.626747 12.626747-27.611798 20.655838-45.288727 23.505455-3.534869 0.570182-7.090424 0.994263-10.635636 1.484283-1.030465 0-2.055758 0-3.086222-0.005172C555.835013 860.200081 553.659013 859.725576 551.467498 859.558788L551.467498 859.558788zM551.467498 859.558788"
             horiz-adv-x="1035"/>


      <glyph glyph-name="tongyi" unicode="&#58932;"
             d="M512-128C229.241263-128 0 101.241263 0 384 0 666.758737 229.241263 896 512 896 794.758737 896 1024 666.758737 1024 384 1024 101.241263 794.758737-128 512-128ZM512 842.105263C258.991158 842.105263 53.894737 637.008842 53.894737 384 53.894737 130.991158 258.991158-74.105263 512-74.105263 765.008842-74.105263 970.105263 130.991158 970.105263 384 970.105263 637.008842 765.008842 842.105263 512 842.105263ZM423.262316 163.247158C412.752842 152.710737 395.668211 152.710737 385.158737 163.247158L210.405053 338.000842C199.868632 348.510316 199.868632 365.594947 210.405053 376.104421 220.914526 386.640842 237.972211 386.640842 248.508632 376.104421L404.210526 220.402526 775.491368 591.683368C786.027789 602.219789 803.085474 602.219789 813.594947 591.683368 824.131368 581.173895 824.131368 564.089263 813.594947 553.579789L423.262316 163.247158Z"
             horiz-adv-x="1024"/>


      <glyph glyph-name="rili1" unicode="&#58988;"
             d="M689.709 361.778h88.889v-88.854h-88.889v88.854zM689.709 184.067h88.889v-88.856h-88.889v88.856zM689.709 628.378c24.529 0 44.445 19.883 44.445 44.41l0 111.077c0 24.561-19.917 44.444-44.445 44.444-24.527 0-44.41-19.883-44.41-44.444v-111.078c0-24.527 19.884-44.409 44.41-44.409zM423.144 739.456h177.711v-44.445h-177.711v44.445zM467.556 361.778h88.889v-88.854h-88.889v88.854zM334.291 628.378c24.527 0 44.41 19.883 44.41 44.41l0 111.077c0 24.561-19.883 44.444-44.41 44.444-24.562 0-44.445-19.883-44.445-44.444v-111.078c-0.001-24.527 19.883-44.409 44.445-44.409zM845.232 739.456h-66.634v-44.445h44.411c36.807 0 66.633-29.824 66.633-66.633v-88.856h-755.32v88.856c0 36.807 29.858 66.633 66.667 66.633h44.408v44.445h-66.633c-49.089 0-88.856-39.801-88.856-88.891v-622.020c0-49.054 39.766-88.854 88.856-88.854h666.465c49.054 0 88.856 39.8 88.856 88.854l-0 622.019c0.001 49.090-39.8 88.892-88.855 88.892zM889.642 50.768c0-36.806-29.824-66.633-66.633-66.633l-622.019-0c-36.809 0-66.667 29.826-66.667 66.633l0 444.309h755.319v-444.309zM467.556 184.067h88.889v-88.856h-88.889v88.856zM245.399 361.778h88.891v-88.854h-88.891v88.854zM245.399 184.067h88.891v-88.856h-88.891v88.856z"
             horiz-adv-x="1024"/>


      <glyph glyph-name="zichan" unicode="&#58896;"
             d="M902.713 516.845c-26.362-38.676-106.325-70.781-213.248-87.894v-55.834c131.899 21.080 222.865 64.947 222.865 115.794 0.001 9.593-3.484 18.924-9.617 27.934zM689.465 153.096v-55.846c131.899 21.090 222.865 64.947 222.865 115.793 0 9.607-3.485 18.936-9.617 27.946-26.362-38.686-106.324-70.793-213.248-87.893zM902.713 378.471c-26.362-38.676-106.325-70.77-213.248-87.895v-55.823c131.899 21.080 222.865 64.935 222.865 115.795 0.001 9.593-3.484 18.923-9.617 27.922zM513.266 498.504c220.388 0 399.066 71.331 399.066 159.318 0 87.985-178.676 159.316-399.066 159.316-220.39 0-399.067-71.331-399.067-159.316 0-87.987 178.676-159.318 399.067-159.318zM902.714 105.674c-39.478-57.908-198.714-101.27-389.449-101.27-190.736 0-349.972 43.361-389.449 101.27-6.132-9.009-9.616-18.328-9.616-27.933 0-71.355 178.676-129.204 399.067-129.204 220.388 0 399.066 57.849 399.066 129.204-0.001 9.606-3.486 18.923-9.619 27.933zM337.063 234.753v55.822c-106.933 17.123-186.884 49.221-213.248 87.895-6.132-8.999-9.616-18.33-9.616-27.922 0-50.859 90.967-94.715 222.864-115.795zM337.063 97.25v55.846c-106.933 17.103-186.884 49.207-213.248 87.894-6.132-9.010-9.616-18.34-9.616-27.946 0-50.847 90.967-94.704 222.864-115.794zM337.063 373.117v55.834c-106.933 17.113-186.884 49.22-213.248 87.894-6.132-9.008-9.616-18.339-9.616-27.935 0-50.847 90.967-94.713 222.864-115.793zM605.623 454.161l-61.25-112.853c-16.333-30.583-26.324-50.913-29.972-60.987h-1.043c-10.777 24.499-41.182 82.444-91.222 173.841h-57.599l107.119-184.004h-87.833v-40.659h102.949v-56.036h-102.947v-41.179h102.949v-81.577h51.083v81.577h99.299v41.179h-99.299v56.036h99.3v40.659h-85.226l108.162 184.004h-54.472z"
             horiz-adv-x="1024"/>


      <glyph glyph-name="mai" unicode="&#59036;"
             d="M664.682913 338.793402 664.682913 375.81969 556.250318 375.81969l1.323135 13.223163c4.40124 24.669866 7.045463 59.939137 7.933693 105.787348l-42.314735 0c0-40.558741-2.211365-75.373665-6.612605-104.464213L515.257695 375.81969l-64.793702 0-99.175767 0 0-37.026288L503.357668 338.793402c-12.355399-28.222785-61.281715-47.604204-146.778948-58.182121 1.755993-2.644223 3.967358-7.045463 6.611581-13.223163 6.157233-12.335956 10.578939-21.157879 13.223163-26.447349 76.695776 14.999622 126.055974 34.381042 148.102083 58.182121 4.40124-1.77646 10.578939-4.420683 18.512632-7.933693 40.538275-18.512632 72.728418-33.92567 96.53052-46.282093l21.157879 35.703153c-8.821923 3.51301-26.012444 10.578939-51.570539 21.157879-29.979802 13.223163-51.570539 22.479991-64.794725 27.76946l3.967358 9.255805L664.682913 338.793402zM390.958738 448.548108l-18.512632-29.091572c32.603559-17.644869 58.617026-32.191166 78.017888-43.636846l19.834744 30.413684C440.319959 423.857776 413.87261 437.969169 390.958738 448.548108zM613.111351 439.291281c8.801457-2.644223 14.979156-4.421706 18.512632-5.28947l23.802102 75.373665 0 34.381042L361.867166 543.756517l0-35.703153 252.566296 0-21.157879-64.794725C597.676823 442.370409 604.288404 441.047274 613.111351 439.291281zM480.877677 430.035476l21.156856 31.735795c-26.446325 14.980179-52.892651 28.203342-79.339999 39.670511l-18.512632-27.76946C428.851767 461.316923 454.431352 446.770626 480.877677 430.035476zM850.016968 428.146453c-14.439874 0-26.14752-11.706623-26.14752-26.14752 0-84.196611-32.788777-163.353438-92.326778-222.887346-59.539025-59.535955-138.704039-92.323709-222.911906-92.323709-84.202751 0-163.362648 32.787754-222.897579 92.322685-59.533908 59.533908-92.320639 138.690736-92.320639 222.88837 0 84.197634 32.786731 163.355485 92.320639 222.889393 59.535955 59.534931 138.695852 92.322685 222.897579 92.322685 55.970756 0 110.934578-14.848173 158.949128-42.939975 46.63411-27.285436 85.74385-66.333778 113.099894-112.924909 7.312546-12.45159 23.332405-16.619516 35.787064-9.309016 12.452613 7.311523 16.620539 23.334451 9.309016 35.787064-31.875988 54.289464-77.447906 99.789751-131.787512 131.582851-56.017828 32.774451-120.113635 50.098002-185.357592 50.098002-49.605791 0-97.739045-9.720386-143.06537-28.891004-43.766806-18.510586-83.066881-45.00603-116.809379-78.748528-33.742499-33.742499-60.236919-73.042573-78.747505-116.808356-19.169595-45.324278-28.889981-93.456508-28.889981-143.058207 0-49.601698 9.720386-97.732905 28.889981-143.057183 18.510586-43.766806 45.005007-83.065857 78.747505-116.807333 33.742499-33.743522 73.043596-60.237943 116.809379-78.748528 45.326325-19.170618 93.460602-28.891004 143.06537-28.891004 49.607838 0 97.744161 9.720386 143.07151 28.889981 43.768853 18.511609 83.071997 45.00603 116.816542 78.748528 33.744545 33.742499 60.239989 73.042573 78.751598 116.807333 19.171642 45.324278 28.892027 93.456508 28.892027 143.058207C876.164488 416.440853 864.457866 428.146453 850.016968 428.146453z"
             horiz-adv-x="1024"/>


      <glyph glyph-name="shangpin" unicode="&#59637;"
             d="M790.12-114.863H233.904c-65.306 0-92.497 46.856-97.78 71.63-2.89 16.249-67.334 377.446-80.68 476.557-4.866 36.214 1.919 65.125 20.101 85.935 17.29 19.737 44.567 30.621 76.814 30.621 7.453 0 13.374-0.582 16.6-0.997h686.109c3.224 0.419 9.145 0.997 16.595 0.997 32.252 0 59.524-10.884 76.79-30.635 18.213-20.796 24.968-49.707 20.103-85.921-13.319-99.097-77.764-460.307-80.486-475.64-5.451-25.69-32.64-72.547-97.948-72.547z m-637.762 607.81c-9.032 0-25.438-1.464-33.944-11.176-8.619-9.845-8.314-27.652-6.533-40.87 13.152-97.89 79.455-469.468 80.125-473.207 1.33-4.922 9.147-25.619 41.897-25.619h556.218c36.033 0 41.844 25.453 42.062 26.535 0.504 2.822 66.807 374.4 79.93 472.29 1.782 13.218 2.086 31.025-6.504 40.87-8.51 9.715-24.91 11.175-33.948 11.175-5.421 0-9.255-0.513-10.005-0.628a30.543 30.543 0 0 0-4.59-0.375H166.953c-1.583 0-3.17 0.143-4.753 0.403-0.555 0.083-4.422 0.601-9.843 0.601zM232.4 341.443c0-15.575 6.415-31.054 17.427-42.068 11.014-11.013 26.494-17.422 42.067-17.422 15.575 0 31.055 6.41 42.068 17.422 11.013 11.014 17.422 26.493 17.422 42.068s-6.409 31.053-17.422 42.067c-11.013 11.014-26.493 17.422-42.068 17.422-15.573 0-31.053-6.408-42.067-17.422-11.012-11.014-17.427-26.492-17.427-42.067z m440.237 0c0-15.575 6.41-31.054 17.423-42.068 11.012-11.013 26.492-17.422 42.067-17.422 15.574 0 31.054 6.41 42.068 17.422 11.012 11.014 17.422 26.493 17.422 42.068s-6.411 31.053-17.422 42.067c-11.014 11.014-26.494 17.422-42.068 17.422-15.575 0-31.055-6.408-42.067-17.422-11.014-11.014-17.423-26.492-17.423-42.067z m93.214 247.177c-15.736 0-28.468 12.747-28.468 28.47C737.384 731.508 636.267 824.6 512 824.6c-124.273 0-225.359-93.092-225.359-207.51 0-15.723-12.734-28.47-28.469-28.47-15.737 0-28.47 12.747-28.47 28.47C229.702 762.91 356.337 881.537 512 881.537c155.66 0 282.32-118.628 282.32-264.448 0-15.722-12.73-28.469-28.468-28.469z m0 0"
             horiz-adv-x="1024"/>


      <glyph glyph-name="shouye" unicode="&#58995;"
             d="M756.5-85.4h-72.8c-35.8 0-85.3 31.1-85.4 89.4v38.3c0 35.2 0.1 75-0.6 120.9-1.3 0.4-3.4 0.9-6.4 0.7-26.5-0.4-68.7-0.2-106-0.1-19.9 0.1-38.3 0.1-52 0.1-2.7 0-4.9-0.2-6.5-0.5 0-39.1-0.1-68.5-0.2-97.5l-0.2-61.9c-0.1-50.3-53.6-88.3-89.7-89.2-11.6-0.3-26.4-0.2-41.3-0.1-10.5 0.1-20.9 0.2-30 0.1h-0.8c-49.6 0-84.6 47.5-85.1 90.4-0.7 62.2-1.4 222.7-0.1 312.9-0.9 1.2-2.3 2.5-3.2 2.8-8.7 1.4-48.2 1.1-80.4-0.2-16.3-2.4-57.4-4.8-78.3 25.7-19.6 28.6-8.1 65.5 29.2 94.8l362.8 353.2c13.9 15.3 57.5 59 103.7 59 53.6 0 98.6-47.4 109.4-59.8l390-399s11.6-25.2-8.7-45.5c-24.7-24.7-51.4-13.2-51.4-13.2L559.8 737.8c-12.9 14.8-35.6 31.6-46.6 31.6-7.4-1.1-28.9-17.3-42-32l-2.1-2.2-338.4-329.5c23.9 0.4 49.8 0 62.4-2.5 42.7-8.6 70.8-49.3 70.2-82-1.4-88.5-0.7-252.1 0-315 0-2 1.8-5.6 3.6-7.3 9 0 19 0 29-0.1 12.7-0.1 25.5-0.2 35.8 0 3.4 1.5 8.5 5.4 10.5 8.1l0.2 59.3c0.1 30 0.2 60.5 0.2 101.2 0 48 36.3 80.4 90.4 80.5 13.9 0 32.5 0 52.5-0.1 36.9-0.1 78.7-0.3 104.3 0.1 24.8 0.1 46.7-6.9 63.5-21.1 17.5-14.8 27.8-36.4 28.2-59.3 0.8-47.8 0.7-89 0.7-125.3v-38.1c0-3.3 1.8-4.9 3.5-5.6h70.8c1.7 0 4.9 1.9 4.9 5.5 0 80-1.7 340.9-1.7 340.9s8.7 22.8 39.5 24.4c34.4 1.8 44.5-23.8 44.5-23.8 0-2.6 1.7-261.2 1.7-341.5 0-49.2-39.9-89.4-88.9-89.4z"
             horiz-adv-x="1024"/>


      <glyph glyph-name="gerenxinxiyebaobeixingming" unicode="&#58972;"
             d="M902.132121-33.437995h-58.800409c0.220956 4.701847 0.712761 9.299155 0.712761 14.005754 0 177.879016-149.439852 322.061067-333.826376 322.061067-184.3889 0-333.847759-144.186803-333.847758-322.061067 0-4.704223 0.54645-9.303907 0.736519-14.005754h-58.802784c0 161.247926 103.875415 298.651619 250.131601 353.731415-92.929782 48.850265-156.047146 144.186803-156.047146 253.856965C212.386153 733.538005 345.712854 862.737819 510.218097 862.737819c164.476733 0 297.831944-129.199814 297.831945-288.585058 0-109.674914-63.11974-205.011452-156.054274-253.859341 146.258561-55.079796 250.136353-192.48349 250.136353-353.731415z m-156.769411 607.590756c0 125.80232-105.234413 227.815053-235.144613 227.815053-129.853179 0-235.15174-102.012733-235.15174-227.815053 0-125.807072 105.298561-227.87445 235.15174-227.87445 129.9102 0 235.144613 102.067378 235.144613 227.87445z m0 0"
             horiz-adv-x="1024"/>


      <glyph glyph-name="chexiao" unicode="&#58907;"
             d="M532.992 572.48h-6.528V755.072c0 68.288-31.552 96.768-70.4 57.92L94.72 452.032a99.968 99.968 0 0 1 0.064-140.992l358.592-357.248c38.848-38.656 73.088 0.64 73.088 58.048v192.64h54.336c156.8 0 276.352-84.096 349.76-246.464 14.336-29.44 29.44-22.976 29.44 0-3.2 289.28-200.448 614.464-427.008 614.464z"
             horiz-adv-x="1024"/>


      <glyph glyph-name="fanhui6" unicode="&#58916;"
             d="M781.566553-115.699354L168.659015 355.309159c-20.402945 16.0254-20.402945 42.009075 0 58.034474L781.566553 884.352146c20.377345 16.0254 53.400932 16.0254 73.778278 0 20.377345-15.9998 20.377345-42.009075 0-58.008875L279.326431 384.313596l576.0184-442.004075c20.377345-15.9998 20.377345-41.983475 0-58.008875-20.377345-16.0254-53.400932-16.0254-73.778278 0z"
             horiz-adv-x="1024"/>


      <glyph glyph-name="fanhui7" unicode="&#58951;"
             d="M736-64a31.88 31.88 0 0 0-21.77 8.55l-448 416a32 32 0 0 0 0 46.9l448 416a32 32 0 1 0 43.55-46.9L335 384l422.77-392.55A32 32 0 0 0 736-64z"
             horiz-adv-x="1024"/>


      <glyph glyph-name="_hangqing-weixuan" unicode="&#58927;"
             d="M1024-126.947556H102.144c-61.952 0-97.479111 35.527111-97.479111 97.479112V887.921778h28.444444v-917.390222c0-45.795556 23.210667-69.034667 69.034667-69.034667H1024v-28.444445zM31.800889 175.672889l-18.972445 21.219555L350.72 499.057778l165.347556-153.799111L890.282667 676.551111l18.830222-21.304889-393.528889-348.387555-165.262222 153.685333zM702.805333 809.244444a4.551111 4.551111 0 0 0 4.579556 4.579556h309.048889c2.56 0 4.608-2.048 4.608-4.579556v-309.077333a4.579556 4.579556 0 0 0-4.608-4.579555"
             horiz-adv-x="1024"/>


      <glyph glyph-name="shangpin1" unicode="&#58891;"
             d="M224.279216 281.650018C111.112773 281.650018 19.454207 189.991452 19.454207 76.950055c0-113.041397 91.658566-204.825009 204.825009-204.825009 113.041397 0 204.825009 91.658566 204.825009 204.825009-0.125046 113.041397-91.783612 204.699963-204.825009 204.699963z m0-358.381243C139.498169-76.731225 70.722982-7.956039 70.722982 76.825009s68.775186 153.556234 153.556234 153.556234 153.556234-68.775186 153.556234-153.556234-68.775186-153.556234-153.556234-153.556234zM428.97918 537.618757c-56.520698 0-102.412505-45.891806-102.412505-102.412505s45.891806-102.412505 102.412505-102.412504 102.412505 45.891806 102.412504 102.412504c0 56.645744-45.891806 102.412505-102.412504 102.412505z m0-153.556234c-28.260349 0-51.143729 22.88338-51.14373 51.143729 0 28.260349 22.88338 51.143729 51.14373 51.14373 28.260349 0 51.143729-22.88338 51.143729-51.14373 0.125046-28.260349-22.88338-51.143729-51.143729-51.143729zM224.279216 179.237514c-56.520698 0-102.412505-45.891806-102.412504-102.412505S167.758518-25.587495 224.279216-25.587495s102.412505 45.891806 102.412505 102.412504c-0.125046 56.645744-45.891806 102.412505-102.412505 102.412505z m0-153.556234c-28.260349 0-51.143729 22.88338-51.143729 51.143729 0 28.260349 22.88338 51.143729 51.143729 51.14373 28.260349 0 51.143729-22.88338 51.14373-51.14373 0-28.260349-22.88338-51.143729-51.14373-51.143729zM633.804189 179.237514c-56.520698 0-102.412505-45.891806-102.412505-102.412505s45.891806-102.412505 102.412505-102.412504 102.412505 45.891806 102.412504 102.412504c-0.125046 56.645744-45.891806 102.412505-102.412504 102.412505z m0-153.556234c-28.260349 0-51.143729 22.88338-51.14373 51.143729 0 28.260349 22.88338 51.143729 51.14373 51.14373 28.260349 0 51.143729-22.88338 51.143729-51.14373 0-28.260349-22.88338-51.143729-51.143729-51.143729zM1043.329161 281.650018c0 113.041397-91.658566 204.825009-204.825009 204.825009-31.261448 0-60.897301-7.002564-87.532055-19.632189l79.153987 79.153987-0.375137 0.375137-35.763097 35.763097-160.683844-160.683844c0.250092 4.501649 0.500183 9.128343 0.500183 13.755037 0 61.272439-23.633655 108.164611-57.771157 143.177433-41.640249 42.765661-95.159849 61.52253-146.928807 61.522531-4.126511 0-8.127977-0.125046-12.129442-0.375138L576.533216 799.339602c0.125046 0.125046 0.125046 0.125046 0.125045 0.250091l-0.250091 0.250092c27.760166 27.760166 66.149225 45.016486 108.539748 45.016486 16.005862 0 31.386494-2.500916 45.891806-7.002565 0.125046 0 0.250092-0.125046 0.375138-0.125046 1.125412-0.375137 2.125778-0.625229 3.25119-1.000366 1.50055-0.500183 2.876053-1.000366 4.376603-1.500549 0.250092-0.125046 0.625229-0.250092 0.875321-0.375138 58.021248-21.883014 99.161314-78.028575 99.161314-143.677616 0-42.51557-17.256319-80.904628-45.141532-108.664794l35.888143-35.888143c37.013555 37.013555 60.021981 88.28233 60.021981 144.803028C889.772927 804.341434 798.114361 896 684.947918 896 628.42722 896 577.158445 873.11662 540.14489 835.978019l0.250091-0.250091L293.929723 589.137624c-42.765661-37.513738-69.775553-92.533887-69.775553-153.931372 0-113.041397 91.658566-204.825009 204.82501-204.825009 32.511906 0 63.148126 7.627793 90.533154 21.007693l-20.257419-20.257418c-43.015753-37.513738-70.275736-92.783979-70.275735-154.306509 0-113.041397 91.658566-204.825009 204.825009-204.825009 56.520698 0 107.789474 22.88338 144.803028 60.021981l204.825009 204.825009c37.013555 37.138601 59.896935 88.28233 59.896935 144.803028z m-614.349981 0c-84.781048 0-153.556234 68.775186-153.556234 153.556234 0 39.389425 14.880449 75.402613 39.264379 102.537551l0.125046-0.125046 14.130174 14.130174c26.884846 23.133472 61.897668 37.138601 100.036635 37.138601 84.781048 0 153.556234-68.775186 153.556234-153.556234 0-84.906094-68.775186-153.68128-153.556234-153.68128z m204.825009-358.381243c-84.781048 0-153.556234 68.775186-153.556234 153.556234 0 38.889242 14.505312 74.527293 38.389058 101.537184l0.125046-0.125046 15.380633 15.380633c26.884846 22.88338 61.647576 36.763463 99.661497 36.763463 84.781048 0 153.556234-68.775186 153.556234-153.556234s-68.775186-153.556234-153.556234-153.556234z m204.324826 140.676517c0.250092 4.251557 0.375137 8.62816 0.375137 12.879717 0 77.528392-35.638051 125.045793-65.774087 152.555868-37.138601 33.88741-85.406277 52.269142-139.050922 52.269141-4.001465 0-8.127977-0.125046-12.129442-0.375137l100.16168 100.16168c2.625962 3.001099 5.376969 6.002198 8.127977 8.753206 27.760166 27.760166 66.149225 45.016486 108.539748 45.016485 34.012456 0 65.523996-11.129076 91.033338-29.885944 13.880083-10.128709 25.884479-22.633289 35.638051-36.763463 17.006228-24.759067 27.009891-54.645012 27.009891-86.906827 0-42.390524-17.131274-80.779582-45.016485-108.539748l-108.914886-109.164978z"
             horiz-adv-x="1137"/>


      <glyph glyph-name="fanhui8" unicode="&#58917;"
             d="M740.072727-128L242.036364 374.690909c-4.654545 4.654545-4.654545 13.963636 0 23.272727L740.072727 896l46.545455-46.545455-465.454546-465.454545 465.454546-465.454545-46.545455-46.545455z"
             horiz-adv-x="1024"/>


      <glyph glyph-name="icon_hetongchexiaoshenqing" unicode="&#59494;"
             d="M714.431045 641.248159l-9.042786-10.673035-114.499503-135.004975 88.593831 104.437811-88.593831-104.437811L106.857711-75.19522400000005 590.888756 495.570149 236.615323 77.844378 590.888756 495.570149l114.499503 135.004975L200.571542 35.330547000000024 705.388259 630.575124l9.042786 10.673035-1.324577 254.726368-662.288558-3.489751 5.349254-1018.88 917.014926 4.814328-4.024677 764.179105zM102.043383 841.819701l4.814328-917.014925L590.888756 495.570149 236.615323 77.844378 590.888756 495.570149l114.499503 135.004975L200.571542 35.330547000000024 705.388259 630.575124l9.042786 10.673035-1.069851 203.781095zM714.431045 641.248159L106.857711-75.19522400000005l815.098906 4.279403-3.744478 713.233831zM917.957413 693.263284l-153.650945 152.020696-51.2 50.690547 0.254726-50.945273 1.069851-203.781095 203.781094 1.069851 50.945274 0.254726zM770.572736 360.64159199999995c-34.693731 70.635622-90.122189 131.617114-154.950049 164.527761l-224.846966-265.119204 69.081791-55.224676c26.924577-21.498905 50.410348 0.611343 50.257513 32.757811l-0.560398 107.774726 37.470249 0.203781c108.156816 0.560398 190.942886-46.08 242.015522-136.609751 10.010746-16.404378 20.378109-12.787264 20.301692 0.10189-0.942488 50.690547-15.054328 103.291542-38.769354 151.587662zM596.365373 534.339502c-26.695323 10.876816-54.715224 17.015721-83.422885 16.888359l-4.483185-0.025473-0.534925 102.170746c-0.203781 38.183483-22.059303 54.00199-48.729154 32.146468l-248.230846-203.271642c-21.244179-17.397811-25.141493-43.354428-12.354229-64.114627 3.260498-5.298308 7.336119-10.341891 12.812737-14.723184l179.352835-143.36 224.846966 265.119204c-6.368159 3.235025-12.710846 6.520995-19.257314 9.170149zM874.806766-127.97452699999997v305.671641l-76.41791-76.41791-76.417911 76.41791v-305.671641z"
             horiz-adv-x="1024"/>


      <glyph glyph-name="chengjiaochaxun" unicode="&#58931;"
             d="M849.357 86.467l104.395-104.395c5.096-5.096 8.248-12.136 8.248-19.912 0-15.552-12.607-28.16-28.16-28.16-7.776 0-14.815 3.152-19.912 8.248l-104.339 104.395c-78.698-69.907-182.924-112.608-297.124-112.608-0.17 0-0.339 0-0.509 0-248.477 0-449.956 201.93-449.956 449.982 0 248.503 201.93 449.982 449.982 449.982 248.503 0 449.982-201.93 449.982-449.982 0-114.070-42.579-218.242-112.608-297.551zM118.247 384.018c0-217.117 176.45-393.734 393.734-393.734 217.117 0 393.734 176.449 393.734 393.734 0 217.117-176.449 393.734-393.734 393.734-217.117 0-393.734-176.449-393.734-393.734zM605.916 437.96l193.155-111.539c8.375-4.973 13.9-13.973 13.9-24.262 0-15.532-12.592-28.124-28.124-28.124-5.111 0-9.906 1.364-14.036 3.748l-193.019 111.467-66.71-115.645c-9.885-17.021-28.029-28.284-48.803-28.284-10.546 0-20.414 2.903-28.849 7.952l-96.265 55.599c-17.192 9.843-28.589 28.079-28.589 48.978 0 10.406 2.826 20.152 7.752 28.513l140.308 243.008c9.885 17.021 28.029 28.284 48.804 28.284 10.546 0 20.414-2.902 28.849-7.952l96.265-55.543c17.206-9.839 28.613-28.084 28.613-48.992 0-10.424-2.835-20.185-7.777-28.554l-45.473-78.597zM365.344 357.525l96.521-55.686c0.506-0.281 0.394-0.337 0.563-0.112l140.394 243.272c0.169 0.281 0.225 0.056-0.338 0.394l-96.521 55.686c-0.563 0.338-0.45 0.394-0.563 0.169l-140.451-243.272c-0.169-0.281-0.225-0.056 0.394-0.394zM315.116 159.026c-15.532 0-28.124 12.592-28.124 28.124s12.592 28.124 28.124 28.124h224.992c15.532 0 28.124-12.592 28.124-28.124s-12.592-28.124-28.124-28.124h-224.992z"
             horiz-adv-x="1024"/>


      <glyph glyph-name="gonggao" unicode="&#59103;"
             d="M796 605.1L512 792.9 228 605.1H64v-630h896v630H796zM512 732.9l193.3-127.8H318.7L512 732.9z m398-707.8H114v530h796v-530z m-578 235h-60v60h60v-60z m210 0h-60v60h60v-60z m210 0h-60v60h60v-60z"
             horiz-adv-x="1024"/>


      <glyph glyph-name="20151209tubiaolianxizhuanhuan09" unicode="&#58895;"
             d="M372.912 770.809c5.961 0 11.931-2.273 16.474-6.828l363.506-363.506c9.101-9.097 9.1-23.852 0-32.948l-363.506-363.506c-9.092-9.098-23.856-9.097-32.948 0-9.101 9.101-9.101 23.856 0 32.954l347.028 347.028-347.028 347.033c-9.101 9.097-9.1 23.852 0 32.948 4.549 4.554 10.514 6.829 16.474 6.828z"
             horiz-adv-x="1024"/>


      <glyph glyph-name="xitong" unicode="&#59399;"
             d="M916.93056 760.23808H112.76288C84.25472 760.23808 61.44 743.0144 61.44 714.2912v-516.97664c0-22.97856 22.81472-45.95712 45.62944-45.95712h322.36544l-8.69376-91.904h-62.73024c-22.81472 0-39.936-28.71296-39.936-51.69152H700.2112c5.69344 17.22368-11.40736 51.69152-34.22208 51.69152H603.2384l-8.68352 91.904h322.36544c22.81472 0 45.62944 22.97856 45.62944 45.95712V714.2912c0 28.71296-22.81472 45.94688-45.62944 45.94688z m-5.70368-476.76416H118.4768v425.0624h792.75008v-425.0624zM335.19616 559.2064a51.75296 51.75296 0 0 1 36.3008 15.14496 52.49024 52.49024 0 0 1 15.03232 36.5568c0 13.53728-5.5296 26.9824-15.03232 36.5568a51.77344 51.77344 0 0 1-36.3008 15.13472 51.78368 51.78368 0 0 1-36.29056-15.13472 52.51072 52.51072 0 0 1-15.04256-36.5568c0-13.53728 5.5296-26.99264 15.04256-36.5568a51.75296 51.75296 0 0 1 36.29056-15.14496z m422.0416-68.93568H540.5184v-149.3504h216.71936V490.26048z m0 149.3504H540.5184v-17.22368h216.71936v17.22368z m0-34.4576H540.5184v-17.23392h216.71936v17.23392z m-268.05248-114.8928H272.46592v-17.22368h216.71936v17.22368z m0-34.4576H272.46592v-17.23392h216.71936v17.23392z m0-28.7232H272.46592v-17.23392h216.71936v17.23392z m0-34.46784H272.46592v-17.23392h216.71936v17.23392z m0-34.4576H272.46592v-17.23392h216.71936v17.23392z"
             horiz-adv-x="1024"/>


      <glyph glyph-name="cargo" unicode="&#58901;"
             d="M926.656 703.219l-384.656 156.281c-18 6-36.094 6-54.094 0l-390.563-156.281c-24-6-42.094-36.094-42.094-60.094v-456.75c0-24 12-48.094 36.094-60.094l390.656-210.281c6-12 18-12 30.094-12 12 0 24 0 30 6l390.656 210.281c24 12 36.094 36.094 36.094 60.094v462.75c-0.094 24.094-18.187 54.094-42.188 60.094zM506 817.406h12l84.094-30.094-372.562-174.188-96.188 54.094 372.656 150.188zM488-41.906l-378.656 204.281c-6 0-12 12-12 18v456.75l102.188-54.094v-180.281c0-6 6-12 12-18l120.188-60.094c18-12 36.094 0 36.094 18v150.281l120.187-60.094v-474.75zM512 468.844l-114.188 60.094 372.562 186.281 120.188-48.094-378.563-198.281zM920.656 180.469c0-6-6-12-12-18l-378.656-198.375v468.75l390.656 204.281v-456.656z"
             horiz-adv-x="1024"/>


      <glyph glyph-name="tihuoshenqing" unicode="&#58910;"
             d="M725.333333 742.4h-59.733333v8.533333c0 23.893333-18.773333 42.666667-42.666667 42.666667H273.066667c-23.893333 0-42.666667-18.773333-42.666667-42.666667v-8.533333h-76.8c-37.546667 0-68.266667-30.72-68.266667-68.266667v-622.933333c0-37.546667 30.72-68.266667 68.266667-68.266667h401.066667c9.386667 0 17.066667 7.68 17.066666 17.066667s-7.68 17.066667-17.066666 17.066667H153.6c-18.773333 0-34.133333 15.36-34.133333 34.133333V674.133333c0 18.773333 15.36 34.133333 34.133333 34.133334h76.8v-8.533334c0-23.893333 18.773333-42.666667 42.666667-42.666666h349.866666c23.893333 0 42.666667 18.773333 42.666667 42.666666v8.533334h59.733333c18.773333 0 34.133333-15.36 34.133334-34.133334v-264.533333c0-9.386667 7.68-17.066667 17.066666-17.066667s17.066667 7.68 17.066667 17.066667V674.133333c0 37.546667-30.72 68.266667-68.266667 68.266667z m-93.866666-42.666667c0-5.12-3.413333-8.533333-8.533334-8.533333H273.066667c-5.12 0-8.533333 3.413333-8.533334 8.533333v51.2c0 5.12 3.413333 8.533333 8.533334 8.533334h349.866666c5.12 0 8.533333-3.413333 8.533334-8.533334v-51.2zM640 512H230.4c-14.506667 0-25.6 11.093333-25.6 25.6v17.066667c0 14.506667 11.093333 25.6 25.6 25.6h409.6c14.506667 0 25.6-11.093333 25.6-25.6v-17.066667c0-14.506667-11.093333-25.6-25.6-25.6zM640 375.466667H230.4c-14.506667 0-25.6 11.093333-25.6 25.6v17.066666c0 14.506667 11.093333 25.6 25.6 25.6h409.6c14.506667 0 25.6-11.093333 25.6-25.6v-17.066666c0-14.506667-11.093333-25.6-25.6-25.6zM486.4 238.933333H230.4c-14.506667 0-25.6 11.093333-25.6 25.6v17.066667c0 14.506667 11.093333 25.6 25.6 25.6h256c14.506667 0 25.6-11.093333 25.6-25.6v-17.066667c0-14.506667-11.093333-25.6-25.6-25.6zM727.893333 281.6c-24.746667 0-44.373333-18.773333-46.933333-42.666667h93.013333c-1.706667 23.893333-22.186667 42.666667-46.08 42.666667zM808.106667 207.36c-3.413333 3.413333-8.533333 3.413333-11.946667 0L699.733333 110.933333l-40.106666 40.106667c-3.413333 3.413333-8.533333 3.413333-11.946667 0l-2.56-2.56c-3.413333-3.413333-3.413333-8.533333 0-11.946667l47.786667-47.786666c1.706667-1.706667 4.266667-2.56 5.973333-2.56 2.56 0 4.266667 0.853333 5.973333 2.56l104.106667 104.106666c3.413333 3.413333 3.413333 8.533333 0 11.946667l-0.853333 2.56zM725.333333 358.4c-104.106667 0-187.733333-83.626667-187.733333-187.733333s83.626667-187.733333 187.733333-187.733334 187.733333 83.626667 187.733334 187.733334-83.626667 187.733333-187.733334 187.733333z m130.56-273.066667c0-14.506667-11.093333-25.6-25.6-25.6h-204.8c-14.506667 0-25.6 11.093333-25.6 25.6V213.333333c0 14.506667 11.093333 25.6 25.6 25.6h38.4c2.56 33.28 29.866667 59.733333 64 59.733334s61.44-26.453333 64-59.733334h38.4c14.506667 0 25.6-11.093333 25.6-25.6v-128z"
             horiz-adv-x="1024"/>


      <glyph glyph-name="localoffer" unicode="&#58909;"
             d="M270.222 320.461l5.115 416.463 298.195 5.214 298.196 5.214V-95.24000000000001L720.263 55.335000000000036 568.8 205.90999999999997 416.953 54.95500000000004 265.106-96.00099999999998l5.116 416.462z m-117.95 130.89V859.989h302.929c254.137 0 302.929-4.49 302.929-27.88 0-23-47.214-28.799-269.796-33.133l-269.796-5.253-9.467-367.643c-6.961-270.369-15.728-369.723-33.132-375.505-18.445-6.128-23.667 82.294-23.667 400.776z"
             horiz-adv-x="1024"/>


      <glyph glyph-name="chujin-" unicode="&#58925;"
             d="M874.201244 522.016848a648.890569 648.890569 0 0 1-87.645022 68.754243 174.829293 174.829293 0 0 1-13.92491 8.856653c43.003399 19.658697 71.467553 54.931722 71.467553 95.733756 0 63.941958-68.498271 112.832727-149.99995 113.344672l28.054599-28.003403a117.491428 117.491428 0 0 0-0.56314-165.972641l-1.12628-1.12628a117.133067 117.133067 0 0 0-83.395876-34.556302c-8.959041 0-17.713305 0.972696-26.160401 2.918088l-0.614334-71.621137a117.952179 117.952179 0 0 0-115.597231-116.825899l-3.993173-0.051195c-22.218423 0-44.027289 6.757677-63.071652 19.453918a114.778119 114.778119 0 0 0-32.098965 32.098966 113.037505 113.037505 0 0 0-19.402724 66.706462l0.614334 70.802024a118.771291 118.771291 0 0 0-28.668932-3.481227 114.778119 114.778119 0 0 0-81.706457 33.73719l-2.610921 2.610921a115.341258 115.341258 0 0 0-33.890774 83.805432c0.409556 31.177464 12.798631 60.56312 34.965859 82.627959l25.904428 25.904429c-72.389054-7.627984-129.982892-53.600665-129.982892-112.218393 0-40.802034 28.464154-76.07506 71.467553-95.733757a147.081862 147.081862 0 0 1-13.92491-8.856652c-30.153574-19.658697-59.744007-42.747426-87.645022-68.754243-80.93854-75.102364-130.648421-161.518717-130.64842-257.252474 0-266.057932 225.563065-392.764374 497.405977-392.764374l5.017063 0.051194 5.017064-0.051194c271.894107 0 497.405978 126.706442 497.405977 392.764374 0 95.580173-49.658687 181.996526-130.648421 257.09889z m-266.979433-341.313879h-75.614309v-29.129683h55.69964a29.180878 29.180878 0 0 0 0-58.259367h-55.69964v-44.846401a29.180878 29.180878 0 0 0-58.259366 0v44.846401h-58.310561a29.180878 29.180878 0 0 0 0 58.259367h58.310561v29.129683h-75.358337a29.180878 29.180878 0 1 0 0 58.259366h34.095552l-54.368583 54.368583a29.180878 29.180878 0 1 0 41.262785 41.262784l83.498266-83.498265 83.498266 83.498265a29.180878 29.180878 0 1 0 41.262784-41.262784l-54.368582-54.368583h34.351524a29.180878 29.180878 0 0 0 0-58.259366zM318.894262 663.057757c20.93856-20.989754 55.085306-20.068253 76.07506 0.972696l45.870292 45.870292-1.484641-183.890724a50.426604 50.426604 0 0 1 8.805458-30.255963 52.474385 52.474385 0 0 1 44.897596-23.395896 54.982917 54.982917 0 0 1 54.163804 54.163804l1.433447 179.99994 42.952204-42.952204c21.450505-21.450505 55.597251-20.477809 76.535811 0.511945l1.02389 0.972696c20.93856 20.989754 21.450505 55.648446 0.511945 76.587005l-136.126234 136.126235-1.945392 1.945392-0.460751 0.46075a53.754248 53.754248 0 0 1-75.614309 0.511946l-0.511945-0.511946-1.023891-0.972696-136.586985-136.586985c-21.450505-21.450505-21.96245-56.109196-0.972696-77.09895l2.457337-2.457337z"
             horiz-adv-x="1024"/>


      <glyph glyph-name="yonghuzijinchaxun" unicode="&#58903;"
             d="M969.505793-56.46578s-76.709691 76.615312-78.187895 77.76555c20.322057 31.208621 32.196056 68.332416 32.196056 108.36425 0 109.914417-89.099232 199.01365-199.060839 199.01365-109.915597 0-199.060839-89.100412-199.060839-199.01365 0-109.960427 89.145242-199.038424 199.060839-199.038424 40.008239 0 77.201639 11.873999 108.435034 32.220831 1.126644-1.525393 78.985393-78.281093 78.985393-78.281093 8.214471-8.189697 17.272451-12.554704 27.995032-12.554705a41.927663 41.927663 0 0 1 29.637219 12.247974c16.307431 16.379394 16.307431 42.896222 0 59.275617z m-245.053857 49.933321c-75.091099 0-136.220074 61.10538-136.220074 136.196479 0 75.04391 61.127795 136.172884 136.220074 136.172885 75.066324 0 136.195299-61.128975 136.195299-136.172885 0-75.091099-61.128975-136.196479-136.195299-136.196479zM531.752209-3.927611H202.487928a40.185199 40.185199 0 0 0-40.550916 39.946893V761.490537c0 21.624481 18.161969 39.945713 40.550916 39.945714h522.92077a40.186379 40.186379 0 0 0 40.550916-39.945714V354.054878a229.83178 229.83178 0 0 0 80.53674-31.984885V801.235696a80.53556 80.53556 0 0 1-80.415228 80.737295H161.81668a80.544998 80.544998 0 0 1-56.943287-23.701989 80.53792 80.53792 0 0 1-23.471941-57.035306v-804.960393A80.546178 80.546178 0 0 1 104.873393-60.762363a80.540279 80.540279 0 0 1 56.943287-23.700809h466.796216c-39.265008 17.444692-72.763488 45.502249-96.860687 80.535561zM242.473752 116.878089h248.917478c-0.143927 3.338641-0.231227 6.692618-0.231227 10.06665 0 24.57499 3.848285 48.248665 10.950269 70.46773H242.473752v-80.53438zM554.551703 680.63173l-90.60339-116.49496-90.602211 116.49496h-90.604569l93.94557-120.80452h-93.94557v-60.40226h151.00565v-60.40226h-151.00565v-60.401081h151.00565v-120.8057h60.40344V378.621609h151.00447v60.401081H494.150623v60.40226h151.00447v60.40226H551.208344l93.946749 120.80452z"
             horiz-adv-x="1024"/>


      <glyph glyph-name="fabuxiangmu" unicode="&#58899;"
             d="M704.128 83.072h-480a28.032 28.032 0 1 0 0 56.064h480a28.032 28.032 0 1 0 0-56.064z m0 0M756.224-62.08H171.968c-46.4 0-84.096 37.76-84.096 84.096V745.344c0 46.4 37.76 84.096 84.096 84.096h395.648a28.032 28.032 0 1 0 0-56.064H171.968a28.032 28.032 0 0 1-28.032-28.032v-723.328c0-15.424 12.544-28.032 28.032-28.032h584.256a28.096 28.096 0 0 1 28.032 28.032v223.232a28.032 28.032 0 1 0 56.064 0v-223.232a84.16 84.16 0 0 0-84.096-84.096z m0 0M399.488 222.976a28.608 28.608 0 0 0-20.032 8.256c-9.536 9.472-9.536 9.472-3.84 78.4l6.08 72.96c3.072 37.056 26.112 86.72 52.416 113.088l268.352 268.352c31.616 31.616 87.232 31.68 118.976 0l90.752-90.816a84.16 84.16 0 0 0 0-118.976L643.84 285.888c-26.304-26.304-76.032-49.344-113.088-52.416l-72.96-6.08c-35.072-2.88-54.656-4.416-58.304-4.416z m362.496 509.504a28.096 28.096 0 0 1-19.904-8.128L473.792 456c-17.28-17.28-34.176-53.76-36.16-78.08l-6.144-72.896-1.92-23.616 23.616 1.92 72.96 6.08c24.32 1.984 60.8 18.944 78.016 36.16l268.352 268.352a28.096 28.096 0 0 1 0 39.68l-90.816 90.816a27.904 27.904 0 0 1-19.712 8.064z m0 0"
             horiz-adv-x="1024"/>


      <glyph glyph-name="fanhui" unicode="&#58904;"
             d="M512.106 815.162c-237.365 0-429.78-192.569-429.78-430.135 0-237.564 192.415-430.132 429.78-430.132 237.388 0 429.802 192.568 429.802 430.132 0 237.566-192.413 430.135-429.802 430.135z m93.465-615.873c10.212-10.166 11.227-25.592 2.321-34.477-8.929-8.885-24.465-7.845-34.675 2.297L373.33 364.761c-5.79 5.77-8.53 13.194-8.266 20.18-0.309 7.049 2.432 14.542 8.246 20.354l199.906 197.652c10.21 10.166 25.725 11.183 34.675 2.298 8.906-8.884 7.892-24.312-2.321-34.477l-187.925-185.74L605.57 199.288z"
             horiz-adv-x="1024"/>


      <glyph glyph-name="jiaoyitongji" unicode="&#58900;"
             d="M916.40509033 4.971679689999974h-57.56781005V478.69775391c0 24.42755127-19.87426758 44.3001709-44.30017091 44.3001709H733.74804688c-24.42755127 0-44.3001709-19.87426758-44.30017091-44.3001709V4.971679689999974h-91.77758789V334.84991455c0 24.42755127-19.87261963 44.3001709-44.30017089 44.3001709H472.58105469c-24.42755127 0-44.3001709-19.87426758-44.30017091-44.3001709V4.971679689999974h-91.77758789V224.48510741999996c0 24.42755127-19.87426758 44.3001709-44.30017089 44.3001709H211.41241455c-24.42755127 0-44.3001709-19.87426758-44.3001709-44.3001709V4.971679689999974H107.59490967c-9.10162354 0-16.47949219-7.37786865-16.47949219-16.47949219s7.37786865-16.47949219 16.47949219-16.47949219h808.81018066c9.10162354 0 16.47949219 7.37786865 16.47949219 16.47949219s-7.37786865 16.47949219-16.47949219 16.47949219z m-716.33551025 0V224.48510741999996a11.35437012 11.35437012 0 0 0 11.34118653 11.34118652h80.78906249a11.35437012 11.35437012 0 0 0 11.34118652-11.34118652V4.971679689999974H200.06958008z m261.16864013 0V334.84991455a11.35437012 11.35437012 0 0 0 11.34118653 11.34118652h80.7890625a11.35437012 11.35437012 0 0 0 11.34118652-11.34118652V4.971679689999974h-103.47143555z m261.16864015 0V478.69775391a11.35437012 11.35437012 0 0 0 11.34118651 11.34118652h80.7890625a11.35437012 11.35437012 0 0 0 11.34118653-11.34118652V4.971679689999974h-103.47143554zM231.65087891 414.62219239a16.42346192 16.42346192 0 0 1 11.65264892 4.82684326l195.60827637 157.70709228 96.04248047-79.56298829c6.4352417-6.4352417 16.87005615-6.4352417 23.3069458 0L834.99804688 743.01727295v-55.71716308c0-9.10162354 7.37786865-16.47949219 16.47949218-16.47949219s16.47949219 7.37786865 16.47949219 16.47949219V781.15576172c0 0.26861573-0.02801513 0.53063965-0.03955078 0.79760742a16.42181396 16.42181396 0 0 1-17.2902832 17.2902832c-0.26531982 0.01153565-0.52734375 0.03955078-0.79760743 0.03955079h-99.70092773c-9.10162354 0-16.47949219-7.37786865-16.47949219-16.47949219s7.37786865-16.47949219 16.47949219-16.47949219h61.56243896L546.60693359 532.5494384799999l-96.04248046 79.56298827a16.48114013 16.48114013 0 0 1-23.30529785 0L219.99822998 442.75268555c-6.4352417-6.4352417-6.4352417-16.87005615 0-23.30694581a16.43664551 16.43664551 0 0 1 11.65264893-4.82354736zM179.40100098 373.60144042m-16.4794922 1e-8a16.47949219 16.47949219 0 1 1 32.95898438 0 16.47949219 16.47949219 0 1 1-32.95898438 0Z"
             horiz-adv-x="1024"/>


      <glyph glyph-name="shaixuansousuo" unicode="&#59047;"
             d="M29.231104 728.8832H314.585771c8.533333 19.387733 18.6368 37.888 29.9008 55.637333H29.231104a27.8528 27.8528 0 0 1 0-55.637333z m0-417.3824h334.506667a414.788267 414.788267 0 0 0-35.6352 55.637333H29.231104a27.8528 27.8528 0 1 1 0-55.637333z m890.4704-361.813333H29.231104a27.8528 27.8528 0 1 1 0-55.637334h890.4704a27.784533 27.784533 0 1 1 0 55.637334z m163.84 195.515733L917.380437 311.432533a332.731733 332.731733 0 0 1 113.664 250.538667 333.960533 333.960533 0 1 1-333.960533-333.960533c64.3072 0 124.1088 18.432 175.104 49.902933l172.032-172.032a27.8528 27.8528 0 0 1 39.3216 39.3216z m-386.389333 138.4448a278.254933 278.254933 0 1 0 0 556.578133 278.254933 278.254933 0 0 0 0-556.578133z"
             horiz-adv-x="1092"/>


      <glyph glyph-name="guanzhu1" unicode="&#58938;"
             d="M984.064 522.119529l45.718588-6.625882 8.131765-24.997647-33.129412-32.225882-75.053176 10.902588 54.332235 53.007059zM54.332235 458.270118l-33.069176 32.225882 8.131765 24.997647 45.718588 6.625882 54.332235-52.946823-75.113412-10.902588z m475.256471-329.487059l247.326118-129.987765-47.284706 275.33553 200.101647 195.041882-276.48 40.176941-123.663059 250.578824-123.663059-250.578824-276.48-40.176941 200.041412-195.041882-47.224471-275.33553 247.326118 129.987765z m0-68.065883l-327.318588-172.032 62.524235 364.42353L0 511.216941l365.929412 53.187765L529.588706 896l163.659294-331.595294 365.929412-53.187765-264.794353-258.108235 62.524235-364.42353-327.318588 172.032z"
             horiz-adv-x="1084"/>


      <glyph glyph-name="fabu--" unicode="&#58987;"
             d="M512 814.4C274.3 814.4 81.6 621.7 81.6 384S274.3-46.4 512-46.4 942.4 146.3 942.4 384 749.7 814.4 512 814.4z m0-815.2c-213.6 0-386.7 172.3-386.7 384.8S298.4 768.8 512 768.8 898.7 596.5 898.7 384 725.6-0.8 512-0.8zM522 194.1h-20c-7.1 0-13 5.8-13 13V560.9c0 7.1 5.8 13 13 13h19.9c7.2 0 13-5.9 13-13v-353.8c0.1-7.1-5.8-13-12.9-13zM701.9 394v-20c0-7.2-5.8-13-13-13H335.1c-7.1 0-13 5.8-13 13v20c0 7.1 5.8 13 13 13h353.8c7.1 0 13-5.9 13-13z"
             horiz-adv-x="1024"/>


      <glyph glyph-name="shouye2" unicode="&#58926;"
             d="M1169.355867 494.17456L692.002709 871.623329c-41.130637 32.508888-105.548986 32.508888-146.669633 0L67.969928 494.17456a37.713907 37.713907 0 0 1-6.204063-52.949326 36.964624 36.964624 0 0 1 52.319928-6.194072l14.815821 12.248278v-456.133466c0-64.718063 68.194736-112.951902 128.067436-112.951902h753.369002c59.273274 0 97.986224 45.366583 97.986224 112.951902V445.521122l13.756834-10.430018a38.533123 38.533123 0 0 1 23.587426-8.162188 37.843782 37.843782 0 0 1 23.687331 67.245644M581.018924-46.498v208.800172c0 10.430018 18.90191 15.575094 37.643973 15.575094s37.643974-5.145076 37.643974-15.575094v-208.800172h-75.287947m451.957462 37.643974c0-24.976097-6.993307-37.643974-22.528439-37.643974H732.523929c0 0.599426-0.759273 1.058987-0.759274 1.508556v207.301606c0 43.848036-35.386134 91.032879-112.951901 91.032879-77.725614 0-112.951902-47.174852-112.951902-91.032879v-207.301606c0-0.609417 1.058987-1.058987 1.058987-1.508556h-249.760971c-23.587426 0-52.769498 20.410467-52.769498 37.643974V506.912369L591.598798 812.499912c13.906691 10.989483 38.962711 10.989483 52.949326 0l388.628071-307.405803v-513.948135h-0.159847"
             horiz-adv-x="1190"/>


      <glyph glyph-name="jiaoyiguanli" unicode="&#58892;"
             d="M754.526316 842.105263H269.473684a26.947368 26.947368 0 0 0 0 53.894737h485.052632a26.947368 26.947368 0 0 0 0-53.894737zM862.315789 734.315789H161.684211a26.947368 26.947368 0 0 0 0 53.894737h700.631578a26.947368 26.947368 0 0 0 0-53.894737zM781.473684-128h-538.947368A242.526316 242.526316 0 0 0 0 114.526316v323.368421A242.526316 242.526316 0 0 0 242.526316 680.421053h538.947368A242.526316 242.526316 0 0 0 1024 437.894737v-323.368421a242.526316 242.526316 0 0 0-242.526316-242.526316zM242.526316 626.526316A188.631579 188.631579 0 0 1 53.894737 437.894737v-323.368421A188.631579 188.631579 0 0 1 242.526316-74.105263h538.947368a188.631579 188.631579 0 0 1 188.631579 188.631579v323.368421A188.631579 188.631579 0 0 1 781.473684 626.526316zM646.736842 330.105263H377.263158a26.947368 26.947368 0 0 0 0 53.894737h269.473684a26.947368 26.947368 0 0 0 0-53.894737zM512 6.736842A26.947368 26.947368 0 0 0 485.052632 33.684211v323.368421a26.947368 26.947368 0 0 0 53.894736 0v-323.368421a26.947368 26.947368 0 0 0-26.947368-26.947369zM646.736842 168.421053H377.263158a26.947368 26.947368 0 0 0 0 53.894736h269.473684a26.947368 26.947368 0 0 0 0-53.894736zM518.467368 350.585263a26.947368 26.947368 0 0 0-18.863157 8.084211L358.4 499.873684a27.055158 27.055158 0 0 0 38.265263 38.265263l141.204211-141.20421a26.947368 26.947368 0 0 0-18.863158-45.810526zM512 350.585263a26.947368 26.947368 0 0 0-19.402105 45.810526l134.736842 141.204211a26.947368 26.947368 0 1 0 38.80421-37.187368l-134.736842-141.204211a26.947368 26.947368 0 0 0-19.402105-8.623158z"
             horiz-adv-x="1024"/>


      <glyph glyph-name="kaishishijian" unicode="&#58897;"
             d="M744.796765 627.689705l31.468492 31.595894 9.045598-8.918196-31.468491-31.659596zM484.130638 768.597201h31.850699v-108.29238h-31.850699zM611.533437 424.609642c38.22084 38.22084 76.44168 76.44168 108.292379 127.4028l-38.220839 38.220839c-50.96112-38.22084-95.5521-82.81182-133.77294-127.402799-12.74028 0-19.11042 6.37014-31.8507 6.37014-6.37014 0-12.74028 0-25.480559-6.37014C445.909798 545.642302 394.948678 628.454121 337.617418 711.265941c-12.74028-12.74028-25.48056-19.11042-38.220839-25.48056 38.22084-89.18196 89.18196-171.993779 146.513219-254.805599-6.37014-12.74028-12.74028-25.48056-12.74028-44.59098 0-31.8507 19.11042-63.7014 50.96112-76.441679 31.8507 50.96112 76.44168 89.18196 127.402799 114.662519zM248.435459 666.674961l-12.74028-6.37014 31.8507-38.22084 12.74028 12.74028zM121.032659 399.129082h108.29238v-31.850699H121.032659zM229.325039 125.213064l6.37014-12.74028 38.22084 31.8507-12.74028 12.74028zM484.130638-21.300156h-25.48056c-19.11042 0-31.8507 6.37014-50.96112 12.74028-19.11042 6.37014-38.22084 12.74028-50.96112 12.74028-50.96112 19.11042-95.5521 50.96112-133.772939 89.18196A408.962986 408.962986 0 0 0 101.92224 386.388802c0 38.22084 6.37014 76.44168 19.110419 114.66252 6.37014 25.48056 12.74028 50.96112 25.48056 76.44168 19.11042 31.8507 44.59098 63.7014 70.07154 95.552099 12.74028 12.74028 25.48056 25.48056 38.22084 31.8507 12.74028 12.74028 25.48056 19.11042 44.59098 31.8507 38.22084 19.11042 76.44168 38.22084 114.662519 44.59098 38.22084 12.74028 63.7014 12.74028 95.5521 12.740279 19.11042 0 31.8507 0 50.961119-6.370139 19.11042 0 31.8507-6.37014 50.96112-12.74028 31.8507-6.37014 57.33126-19.11042 82.81182-31.8507 38.22084-19.11042 70.07154-44.59098 95.552099-70.07154l38.22084-38.22084c12.74028-12.74028 19.11042-31.8507 31.8507-44.59098 19.11042-38.22084 38.22084-76.44168 44.59098-114.662519 6.37014-19.11042 6.37014-38.22084 6.37014-57.33126 44.59098-25.48056 76.44168-57.33126 101.922239-95.552099 6.37014 57.33126 6.37014 114.662519-6.37014 165.623639v6.37014c-19.11042 76.44168-50.96112 146.513219-95.552099 203.844479-44.59098 57.33126-101.92224 108.292379-171.99378 140.143079C687.975117 864.1493 637.013997 883.25972 579.682737 889.62986 515.981337 896 458.650078 896 407.688958 883.25972h-6.37014C324.877138 870.51944 261.175739 838.66874 197.474339 787.707621c-57.33126-44.59098-108.292379-101.92224-140.143079-165.62364C19.11042 545.642302 0 469.200622 0 386.388802c0-140.143079 57.33126-267.545879 146.513219-363.097978 76.44168-76.44168 178.363919-127.402799 293.026439-146.513219 44.59098-6.37014 82.81182-6.37014 127.402799 0-31.8507 31.8507-63.7014 63.7014-82.811819 101.922239zM783.527216 86.992224s-6.37014 0 0 0l-6.37014-57.33126s0-6.37014 6.37014-6.37014h76.44168s6.37014 0 6.37014 6.37014v50.96112s0 6.37014-6.37014 6.37014h-76.44168zM681.604977 214.395023h-19.11042v-19.11042c-6.37014-38.22084-19.11042-63.7014-19.11042-76.441679v-12.74028l6.37014-6.37014 12.74028-6.37014v6.37014c6.37014 12.74028 12.74028 31.8507 19.11042 50.96112 6.37014 19.11042 6.37014 38.22084 6.37014 57.331259v6.37014h-6.37014zM751.676516 405.499222c-146.513219 0-267.545879-121.032659-267.545878-267.545878S605.163297-123.222395 751.676516-123.222395s267.545879 121.032659 267.545879 267.545879-121.032659 261.175739-267.545879 261.175738z m159.2535-407.688958c0-12.74028-6.37014-19.11042-19.11042-19.11042h-140.14308c-12.74028 0-19.11042 6.37014-19.11042 19.11042v121.03266c0 12.74028 6.37014 19.11042 19.11042 19.11042H891.819596c12.74028 0 19.11042-6.37014 19.11042-19.11042v-121.03266z m6.37014 159.2535c-6.37014-6.37014-6.37014-6.37014-12.74028-6.37014H891.819596c-6.37014 0-6.37014 6.37014-12.74028 12.74028v6.37014l-114.66252-19.11042h-12.74028c-6.37014 0-12.74028 6.37014-12.74028 12.74028v-19.11042c-6.37014-25.48056-12.74028-44.59098-25.480559-70.07154 0 0 0-6.37014-6.37014-6.37014l25.480559-12.74028c6.37014-6.37014 6.37014-6.37014 6.37014-12.74028s0-12.74028-6.37014-19.11042l-12.74028-12.74028h-12.740279l-25.48056 12.74028c0-6.37014-6.37014-6.37014-6.37014-12.74028l-38.22084-38.220839c-6.37014-6.37014-12.74028-6.37014-12.74028 0-6.37014 0-6.37014 6.37014-12.74028 12.740279s-6.37014 12.74028-6.37014 19.11042c0 6.37014 0 12.74028 6.37014 12.74028l38.22084 38.22084-38.22084 12.74028c-12.74028 6.37014-12.74028 12.74028-19.11042 25.48056v25.48056c6.37014 12.74028 12.74028 38.22084 25.48056 76.441679 0 6.37014 0 12.74028 6.37014 19.11042h-19.11042c-6.37014 0-12.74028 0-12.74028 6.37014s-6.37014 6.37014-6.37014 12.74028 0 12.74028 6.37014 19.11042c0 6.37014 6.37014 6.37014 12.74028 6.37014h19.11042v38.22084c0 6.37014 6.37014 12.74028 6.37014 12.74028h19.11042c6.37014 0 12.74028-6.37014 12.74028-6.37014 6.37014-6.37014 6.37014-6.37014 6.37014-12.74028s0-19.11042-6.37014-25.48056h31.8507c12.74028 0 19.11042-6.37014 19.11042-6.37014 6.37014-6.37014 6.37014-12.74028 6.370139-25.48056v-31.8507c25.48056 38.22084 44.59098 70.07154 57.33126 101.92224 0 6.37014 6.37014 12.74028 6.37014 12.74028h19.11042c6.37014 0 12.74028-6.37014 12.74028-12.74028v-19.11042c-6.37014-25.48056-19.11042-50.96112-38.22084-76.44168l70.07154 6.37014c-6.37014 12.74028-6.37014 19.11042-12.74028 25.48056v12.74028c0 6.37014 6.37014 6.37014 12.74028 12.74028 6.37014 0 12.74028 6.37014 12.74028 6.37014 6.37014 0 6.37014-6.37014 12.74028-6.37014 6.37014-12.74028 12.74028-25.48056 19.11042-31.8507 6.37014-12.74028 12.74028-25.48056 19.11042-50.96112 12.74028-19.11042 12.74028-25.48056 6.37014-25.480559z"
             horiz-adv-x="1024"/>


      <glyph glyph-name="jieshushijian" unicode="&#58898;"
             d="M483.378882 768.795031h31.801242v-108.124224h-31.801242zM743.640248 628.106335l31.419628 31.546833 9.031553-8.904348-31.419628-31.610435zM610.583851 425.341615c38.161491 38.161491 76.322981 76.322981 108.124224 127.204969l-38.161491 38.161491c-50.881988-38.161491-95.403727-82.68323-133.565218-127.204969-12.720497 0-19.080745 6.360248-31.801242 6.360248-6.360248 0-12.720497 0-25.440994-6.360248C445.217391 546.186335 394.335404 628.869565 337.093168 711.552795c-12.720497-12.720497-25.440994-19.080745-38.161491-25.440994 38.161491-89.043478 89.043478-171.726708 146.285714-254.409938-6.360248-12.720497-12.720497-25.440994-12.720497-44.521739 0-31.801242 19.080745-63.602484 50.881988-76.322981 31.801242 50.881988 76.322981 89.043478 127.204969 114.484472zM248.049689 667.031056l-12.720496-6.360249 31.801242-38.16149 12.720497 12.720497zM120.84472 399.900621h108.124224v-31.801242H120.84472zM483.378882-19.875776h-25.440994c-19.080745 0-31.801242 6.360248-50.881987 12.720496-19.080745 6.360248-38.161491 12.720497-50.881988 12.720497-50.881988 19.080745-95.403727 50.881988-133.565217 89.043479A408.32795 408.32795 0 0 0 101.763975 387.180124c0 38.161491 6.360248 76.322981 19.080745 114.484472 6.360248 25.440994 12.720497 50.881988 25.440994 76.322982 19.080745 31.801242 44.521739 63.602484 69.962733 95.403726 12.720497 12.720497 25.440994 25.440994 38.161491 31.801243 12.720497 12.720497 25.440994 19.080745 44.521739 31.801242 38.161491 19.080745 76.322981 38.161491 114.484472 44.521739 38.161491 12.720497 63.602484 12.720497 95.403727 12.720497 19.080745 0 31.801242 0 50.881987-6.360249 19.080745 0 31.801242-6.360248 50.881988-12.720496 31.801242-6.360248 57.242236-19.080745 82.68323-31.801243 38.161491-19.080745 69.962733-44.521739 95.403726-69.962733l38.161491-38.16149c12.720497-12.720497 19.080745-31.801242 31.801242-44.521739 19.080745-38.161491 38.161491-76.322981 44.52174-114.484473 6.360248-19.080745 6.360248-38.161491 6.360248-57.242236 44.521739-25.440994 76.322981-57.242236 101.763975-95.403726 6.360248 57.242236 6.360248 114.484472-6.360248 165.366459v6.360249c-19.080745 76.322981-50.881988 146.285714-95.403727 203.52795-44.521739 57.242236-101.763975 108.124224-171.726708 139.925466C686.906832 864.198758 636.024845 883.279503 578.782609 889.639752 515.180124 896 457.937888 896 407.055901 883.279503h-6.360249C324.372671 870.559006 260.770186 838.757764 197.167702 787.875776c-57.242236-44.521739-108.124224-101.763975-139.925466-165.366459C19.080745 546.186335 0 469.863354 0 387.180124c0-139.925466 57.242236-267.130435 146.285714-362.534161 76.322981-76.322981 178.086957-127.204969 292.571429-146.285715 44.521739-6.360248 82.68323-6.360248 127.204969 0-31.801242 31.801242-63.602484 63.602484-82.68323 101.763976zM228.968944 126.409938l6.360249-12.720497 38.16149 31.801242-12.720497 12.720497zM750.509317 406.26087c-146.285714 0-267.130435-120.84472-267.130435-267.130435 0-146.285714 120.84472-267.130435 267.130435-267.130435s267.130435 120.84472 267.130435 267.130435c0 152.645963-120.84472 267.130435-267.130435 267.130435z m159.006211-413.41615c0-6.360248-6.360248-6.360248-12.720497-6.360248H610.583851c-6.360248 0-12.720497 0-12.720497 6.360248s-6.360248 12.720497-6.360248 19.080746c0 6.360248 0 12.720497 6.360248 12.720497 0 6.360248 6.360248 6.360248 12.720497 6.360248h38.161491v178.086957c0 6.360248 0 12.720497 6.360248 12.720497s12.720497 6.360248 19.080745 6.360248c6.360248 0 12.720497 0 12.720497-6.360248 6.360248 0 6.360248-6.360248 6.360249-12.720497v-178.086957h44.521739V279.055901c0 6.360248 0 12.720497 6.360248 12.720497s12.720497 6.360248 19.080746 6.360248c6.360248 0 12.720497 0 12.720497-6.360248 6.360248 0 6.360248-6.360248 6.360248-12.720497V196.372671h95.403727c6.360248 0 12.720497 0 12.720497-6.360249s6.360248-12.720497 6.360248-19.080745c0-6.360248 0-12.720497-6.360248-12.720497 0-6.360248-6.360248-6.360248-12.720497-6.360248h-95.403727v-120.844721h114.484472c6.360248 0 12.720497 0 12.720497-6.360248s6.360248-12.720497 6.360248-19.080746c-6.360248 0-6.360248-6.360248-6.360248-12.720497z"
             horiz-adv-x="1024"/>


      <glyph glyph-name="tianping" unicode="&#58887;"
             d="M644.096 37.888h-267.776c-20.992 0-38.4-11.264-38.4-24.576v-4.608c0-13.824 16.896-24.576 38.4-24.576h267.776c20.992 0 38.4 11.264 38.4 24.576v4.608c0 13.312-16.896 24.576-38.4 24.576zM595.968 95.232h-55.296V633.856H768v0.512c3.584 1.024 6.144 4.096 6.144 8.192 0 4.608-3.584 8.192-8.192 8.192h-210.944c4.096 4.096 6.656 9.728 6.656 15.872 0 12.288-9.728 22.016-22.016 22.016H481.28c-12.288 0-22.016-9.728-22.016-22.016 0-6.144 2.56-11.776 6.656-15.872h-196.608c-4.608 0-8.192-3.584-8.192-8.192 0-4.608 3.584-8.192 8.192-8.192h212.992V95.232h-59.904c-13.824 0-24.576-11.264-24.576-24.576v-4.608c0-13.824 11.264-24.576 24.576-24.576h173.568c13.824 0 24.576 11.264 24.576 24.576v4.608c0.512 13.824-10.752 24.576-24.576 24.576zM438.272 341.504v2.048h-1.024l-171.52 294.4-172.032-294.4h-1.536v-2.048c2.048-91.648 78.848-164.864 173.056-164.864s171.008 73.216 173.056 164.864z m-173.056 268.8L418.304 348.16h-306.688l153.6 262.144zM512.512 692.736c24.064 0 43.52 17.408 43.52 38.4 0 21.504-19.456 59.392-43.52 59.392s-43.52-38.4-43.52-59.392 19.456-38.4 43.52-38.4zM929.28 341.504v2.048h-1.024l-171.52 294.4-172.032-294.4h-1.024v-2.048c2.048-91.648 78.848-164.864 173.056-164.864 93.696 0 169.984 73.216 172.544 164.864z m-173.568 268.8L908.8 348.16h-306.688l153.6 262.144z"
             horiz-adv-x="1024"/>


      <glyph glyph-name="down-trangle" unicode="&#58880;"
             d="M493.123 545.827l-285.857-285.857c-10.929-10.929-10.929-29.334 0-40.837 10.929-10.929 29.334-10.929 40.837 0l265.725 265.725 264.573-264.573c10.929-10.929 29.334-10.929 40.837 0 10.929 10.929 10.929 29.334 0 40.837l-284.703 284.703c-12.077 11.502-29.908 11.502-41.4179 0Z"
             horiz-adv-x="1024"/>


      <glyph glyph-name="down-trangle1" unicode="&#58881;"
             d="M530.877 222.173l285.857 285.857c10.929 10.929 10.929 29.334 0 40.837-10.929 10.929-29.334 10.929-40.837 0l-265.725-265.725-264.573 264.573c-10.929 10.929-29.334 10.929-40.837 0-10.929-10.929-10.929-29.334 0-40.837l284.703-284.703c12.077-11.502 29.908-11.502 41.418 0Z"
             horiz-adv-x="1024"/>


      <glyph glyph-name="pingcang1" unicode="&#58885;"
             d="M1109.724579 368.110013l-417.517233-184.585751c-39.97216-17.108805-55.883161-17.108805-92.779518 0l-417.517233 184.585751C159.747343 379.671093 153.768275 422.512232 153.768275 445.906469c27.870243-15.665468 67.060457-33.114923 65.60827-32.225694l426.443807-193.346424 426.438276 193.346424c0.74766 0.164795 38.753341 19.014454 65.608271 32.225694-0.004424-23.93065-7.547384-68.360014-28.14232-77.796456z m0 193.348636l-417.517233-184.591281c-39.97216-17.104381-55.883161-17.104381-92.779518 0l-417.517233 184.591281c-32.795287 17.116548-31.77555 71.013322 0 91.145947l417.517233 216.802598c36.896357 18.124119 59.984231 19.12616 92.779518 0l417.517233-216.802598c31.772232-17.117654 30.74807-77.05322 0-91.145947zM645.820352 832.607059L219.376545 607.029411l426.443807-176.732003 426.438276 176.732003L645.820352 832.607059z m0-805.625768l426.438276 193.351954c0.74766 0.163689 38.753341 19.012242 65.608271 32.22127 0-23.93065-7.547384-68.356696-28.14232-77.80088l-417.517233-184.574691c-39.97216-17.119866-55.883161-17.119866-92.779518 0l-417.517233 184.574691C159.747343 186.323563 153.768275 229.160278 153.768275 252.554515c27.870243-15.669892 67.060457-33.111605 65.60827-32.225694l426.443807-193.34753z m0 0M1228.19219 566.531898v-619.854379c0-10.685123-8.6921-19.37833-19.377223-19.378329H103.467126c-10.684017 0-19.377224 8.6921-19.377224 19.378329V566.531898h-55.300296v-619.854379c0-41.1766 33.499813-74.678625 74.67752-74.678625h1105.348947c41.1766 0 74.677519 33.500919 74.677519 74.678625V566.531898h-55.301402z"
             horiz-adv-x="1379"/>


      <glyph glyph-name="huiyuan" unicode="&#58975;"
             d="M663.9 748.7H362.1c-34.4 0-67.4-14-91.8-38.9L62.5 497c-19.3-19.8-19.3-51.9 0-71.7l404.1-413.7c25.6-26.2 67.2-26.2 92.8 0l404.1 413.7c19.3 19.8 19.3 51.9 0 71.7L755.6 709.8c-24.3 24.9-57.3 38.9-91.7 38.9zM62.5 497c-19.3-19.8-19.3-51.9 0-71.7l8.7-8.9c2.1 38.6 9.4 75.9 21.1 111.1L62.5 497zM963.5 497L861.3 601.6c34.9-61.5 54.8-132.6 54.8-208.3 0-5.6-0.1-11.2-0.3-16.8l47.7 48.8c19.3 19.8 19.3 51.9 0 71.7zM160 596.8l-67.7-69.3c-11.8-35.2-19-72.4-21.1-111.1l41.4-42.4c-1.4 12.8-2.1 25.9-2.1 39.1 0 67 18 129.7 49.5 183.7zM861.3 601.6L755.6 709.8c-24.3 24.9-57.3 38.9-91.8 38.9h-45C749 693 840.1 563.7 840.1 413.2c0-51.3-10.6-100.2-29.8-144.5l105.4 107.9c0.2 5.6 0.3 11.2 0.3 16.8 0.1 75.6-19.8 146.7-54.7 208.2zM427.8 51.3l38.8-39.7c25.6-26.2 67.2-26.2 92.8 0l68.3 69.9c-46.4-21.3-98-33.2-152.3-33.2-16.2 0-32 1-47.6 3zM618.8 748.7H362.1c-34.4 0-67.4-14-91.8-38.9L160 596.8c-31.5-53.9-49.5-116.7-49.5-183.7 0-13.2 0.7-26.2 2.1-39.1l64.3-65.8c-17 38.1-26.4 80.3-26.4 124.8 0 169.5 137.4 306.9 306.9 306.9S764.3 602.5 764.3 433s-137.5-306.9-307-306.9c-47 0-91.5 10.6-131.3 29.4l101.8-104.2c15.6-2 31.4-3.1 47.5-3.1 54.4 0 106 11.9 152.3 33.2l182.8 187.1c19.1 44.3 29.8 93.2 29.8 144.5 0 150.7-91.2 279.9-221.4 335.7zM764.3 433c0 169.5-137.4 306.9-306.9 306.9s-307-137.4-307-306.9c0-44.4 9.5-86.6 26.4-124.8L326 155.5c39.8-18.9 84.3-29.4 131.3-29.4 169.5 0 307 137.4 307 306.9z m-574 19.9c0 137.5 111.5 249 249 249s249-111.5 249-249-111.5-249-249-249-249 111.5-249 249zM688.3 452.9c0 137.5-111.5 249-249 249s-249-111.5-249-249 111.5-249 249-249 249 111.5 249 249z m-267-171.2c-105.5 0-191.1 85.5-191.1 191.1s85.5 191.1 191.1 191.1 191.1-85.5 191.1-191.1-85.6-191.1-191.1-191.1zM421.3 663.8c-105.5 0-191.1-85.5-191.1-191.1s85.5-191.1 191.1-191.1 191.1 85.5 191.1 191.1-85.6 191.1-191.1 191.1z m-18-304.3c-73.5 0-133.1 59.6-133.1 133.1s59.6 133.1 133.1 133.1 133.1-59.6 133.1-133.1-59.6-133.1-133.1-133.1zM403.3 492.6m-133.1 0a133.1 133.1 0 1 1 266.2 0 133.1 133.1 0 1 1-266.2 0ZM663.9 730.7c14.7 0 29-2.9 42.6-8.7 13.6-5.8 25.8-14.1 36.3-24.8l207.9-212.8c12.5-12.8 12.5-33.7 0-46.5L546.5 24.2c-9-9.2-20.9-14.3-33.5-14.3-12.6 0-24.5 5.1-33.5 14.3L75.4 437.9c-12.5 12.8-12.5 33.7 0 46.5l207.9 212.8c10.4 10.7 22.6 19 36.3 24.8 13.6 5.8 27.9 8.7 42.6 8.7h301.7m0 18H362.1c-34.4 0-67.4-14-91.8-38.9L62.5 497c-19.3-19.8-19.3-51.9 0-71.7l404.1-413.7c12.8-13.1 29.6-19.7 46.4-19.7 16.8 0 33.6 6.6 46.4 19.7l404.1 413.7c19.3 19.8 19.3 51.9 0 71.7L755.6 709.8c-24.3 24.9-57.3 38.9-91.7 38.9zM585.5 596.6h-145c-16.5 0-32.4-6.7-44.1-18.6l-99.9-101.6c-9.3-9.5-9.3-24.8 0-34.2l194.2-197.6a31.21 31.21 0 0 1 44.6 0l194.2 197.6c9.3 9.5 9.3 24.8 0 34.2L629.6 578c-11.7 11.9-27.6 18.6-44.1 18.6zM222 549.2c-4.6 0-9.2 1.7-12.7 5.2-7.1 7-7.1 18.4-0.1 25.5l87.4 88.1c7 7.1 18.4 7.1 25.5 0.1 7.1-7 7.1-18.4 0.1-25.5l-87.4-88.1c-3.5-3.5-8.2-5.3-12.8-5.3zM172.4 499.2c-4.6 0-9.2 1.7-12.7 5.2-7.1 7-7.1 18.4-0.1 25.5l7.4 7.5c7 7.1 18.4 7.1 25.5 0.1 7.1-7 7.1-18.4 0.1-25.5l-7.4-7.5c-3.6-3.6-8.2-5.3-12.8-5.3z"
             horiz-adv-x="1024"/>


      <glyph glyph-name="maijiadingdan" unicode="&#59000;"
             d="M812.228239 399.758709c-8.308316 0-16.616633-0.361231-24.744334-1.264309l-0.993386 372.248699c0 19.59679-14.810477 38.922656-34.587882 38.922656H173.300644c4.876621-10.836934 12.101243-23.480025 12.101243-36.123115V38.076021c0-19.59679 17.700326-32.781727 37.477732-32.781727 1.083693 0 2.167387-0.180616 3.25108-0.361231 1.083693 0.180616 2.167387 0.361231 3.251081 0.361231 19.777405 0 40.457889 13.184937 40.457888 32.781727V134.524738c0 14.26863 9.662933 24.112179 24.11218 24.112179h277.335214c0-16.526325 1.715848-32.601111 4.876621-48.224359H317.973719l-0.722462-69.536996c0-12.64309-6.502161-27.995414-11.378781-38.922656h323.301878c16.165094-18.874328 35.310345-35.129729 56.532675-48.314666H229.291472c-1.083693 0-2.167387 0.180616-3.25108 0.270923-1.083693-0.180616-2.167387-0.270923-3.251081-0.270923-48.495282 0-87.959785 39.103272-87.959785 87.147014V650.904665l-104.305494-0.090307c-6.863392 0-13.546168 2.709234-18.422789 7.585854C7.224623 663.186524 4.515389 669.778993 4.515389 676.642385V770.29156c0 47.321281 37.748655 86.51486 85.250552 87.688862h660.962695c48.495282 0 87.959785-39.103272 87.959784-87.147015v-372.519623c-8.759855 0.903078-17.519711 1.444925-26.460181 1.444925zM137.087221 773.54264c0 19.59679-18.332481 32.781727-38.109886 32.781727h-1.174001s-45.153894 6.14093-45.153894-32.781727v-72.336537h84.347473v72.336537z m120.560896-397.89611v36.213422h289.346151v-36.213422H257.648117z m0 301.447394h289.346151v-36.213423H257.648117v36.213423z m458.131405-168.785255H257.648117v36.213423h458.131405v-36.213423z m0 0M812.770086 370.769909c-116.767969 0-211.320222-94.642561-211.320223-211.320222s94.642561-211.320222 211.320223-211.320222c116.767969 0 211.320222 94.642561 211.320222 211.320222s-94.642561 211.320222-211.320222 211.320222zM713.612135 207.041891c10.385396-0.632155 21.041714-0.993386 32.059265-0.993386h61.228679v26.279566h-51.475438c-10.385396 0-20.770791-0.361231-31.065879-0.993385v16.526325c10.385396-0.632155 19.054943-0.993386 26.279566-0.993386h56.352059c0 11.01755-0.361231 19.416174-0.993386 25.28618H826.316254c-0.632155-5.870006-0.993386-14.26863-0.993386-25.28618h56.352059c5.870006 0 14.26863 0.270923 25.286181 0.993386V231.334686c-10.385396 0.632155-18.78402 0.993386-25.286181 0.993385H825.413176V206.048505h91.39148c-3.25108-7.134315-7.134315-15.0814-11.649704-23.841256s-8.127701-16.706941-10.656319-23.841256c-7.134315 2.618926-13.636476 4.244466-19.416174 4.876621 8.398624 13.636476 13.636476 23.028486 15.532939 28.17603H746.664785c-11.649705 0-22.667255-0.361231-33.05265-0.993386v16.616633z m109.814269-51.475439c-3.883235-4.515389-7.76647-9.753241-11.649704-15.532939-11.649705 10.385396-26.550489 21.041714-44.702355 32.059264 4.515389 5.147544 8.127701 10.024164 10.656319 14.539554 7.76647-5.237852 15.171708-10.20478 22.396331-15.081401 7.134315-4.786313 14.900785-10.20478 23.299409-15.984478z m73.87177-107.917806c-13.636476 9.753241-34.949114 22.396331-64.118529 37.929271 3.25108 5.147544 6.14093 10.024164 8.759856 14.539554 32.420496-16.165094 55.08775-28.17603 68.001764-35.9425-3.883235-3.883235-8.127701-9.39201-12.643091-16.526325z m25.286181 60.235294c-11.649705 0.632155-23.66064 0.993386-35.942499 0.993386h-50.572361c-5.237852-8.398624-11.83032-16.074786-19.958021-22.84787-8.127701-6.773084-16.887556-12.64309-26.279566-17.519711-9.39201-4.876621-18.964635-9.030779-28.627569-12.64309-9.753241-3.522004-21.402946-7.314931-34.949114-11.198166-3.883235 7.134315-8.398624 13.004321-13.636476 17.519711 12.281859 1.986771 24.47341 4.696005 36.484347 8.218009 12.010936 3.522004 21.854485 7.134315 29.620954 10.656319 7.76647 3.522004 14.539554 7.405239 20.40956 11.649704 5.870006 4.244466 11.288473 9.572625 16.526325 16.074786h-73.87177c-9.121087 0-20.048329-0.361231-33.05265-0.993385v16.526325c12.914014-0.632155 23.931564-0.993386 33.05265-0.993386h29.169415c-9.753241 8.398624-23.66064 18.151865-41.812505 29.169415 3.883235 5.147544 6.773084 9.753241 8.759855 13.636476 12.281859-7.134315 22.396331-13.275245 30.162801-18.422788 7.76647-5.237852 13.907399-9.39201 18.422788-12.643091-3.883235-3.883235-7.134315-7.76647-9.753241-11.649704h46.689126c3.883235 10.385396 6.592468 20.048329 8.218009 29.169415 1.62554 9.030779 2.709234 20.680483 3.431696 34.949114 9.030779-3.25108 16.797248-5.508775 23.299409-6.773084-3.25108-3.25108-5.870006-10.385396-7.76647-21.402946-1.986771-11.01755-5.237852-23.028486-9.753241-35.942499h53.46221c5.870006 0 15.171708 0.270923 28.17603 0.993385v-16.526325z"
             horiz-adv-x="1024"/>


      <glyph glyph-name="shangshuangjiantou" unicode="&#58905;"
             d="M859.9-6.5L512 341.4 164.1-6.5 96.6 61 512 476.3 927.4 61zM859.9 291.7L512 639.6 164.1 291.7l-67.5 67.4L512 774.5l415.4-415.4z"
             horiz-adv-x="1024"/>


      <glyph glyph-name="xiashuangjiantou" unicode="&#58906;"
             d="M164.1 774.5L512 426.6l347.9 347.9 67.5-67.5L512 291.7 96.6 707zM164.1 476.3L512 128.4l347.9 347.9 67.5-67.4L512-6.5 96.6 408.9z"
             horiz-adv-x="1024"/>


      <glyph glyph-name="-nav-hangqing" unicode="&#58911;"
             d="M512 896C229.376 896 0 666.624 0 384c0-70.144 14.336-137.216 39.936-198.656L248.832 394.24c33.28 33.28 87.552 33.28 120.832 0l69.632-69.632c16.896-16.896 43.52-16.896 60.416 0l208.384 208.384h-131.584c-23.552 0-42.496 18.944-42.496 42.496 0 23.552 18.944 42.496 42.496 42.496h234.496c23.552 0 42.496-18.944 42.496-42.496v-234.496c0-23.552-18.944-42.496-42.496-42.496-23.552 0-42.496 18.944-42.496 42.496V473.088l-238.08-238.08c-33.28-33.28-87.552-33.28-120.832 0l-69.632 69.632c-16.896 16.896-43.52 16.896-60.416 0L81.92 106.496c91.136-141.312 249.856-234.496 430.08-234.496 282.624 0 512 229.376 512 512S794.624 896 512 896z"
             horiz-adv-x="1024"/>


      <glyph glyph-name="hetong" unicode="&#58890;"
             d="M664.856921 537.15936c-149.847167 0-276.006238-122.225842-276.006239-276.006238s122.225842-276.006238 276.006239-276.006238 276.006238 122.225842 276.006238 276.006238c3.933229 153.780396-122.225842 276.006238-276.006238 276.006238z m0-504.725004c-126.188644 0-228.689193 102.530122-228.689194 228.689193s102.530122 228.689193 228.689194 228.689193S893.546114 387.28262 893.546114 261.123549s-102.530122-228.689193-228.689193-228.689193zM156.198687 702.769018H550.497537v-63.079536H156.198687V702.769018z m0-161.676429h315.456824v-63.079535H156.198687V541.092589z m0-185.33495H313.912312v-63.079536H156.198687v63.079536z m193.201409-291.768729H73.393858v768.901981h634.846878v-220.822734c15.762491 0 51.250274-3.933229 67.042338-3.933229v256.310518c0 15.762491-15.762491 31.554554-31.554554 31.554554H37.906074C22.143584 896 6.35152 880.237509 6.35152 864.445446v-835.94432c0-15.762491 15.762491-31.554554 31.554554-31.554554h350.944608c-15.762491 19.725293-27.591752 51.250274-39.421013 67.042338z m473.17045 248.414486c-3.933229 11.829261-11.829261 15.762491-23.658522 19.725293l-74.908797 11.829262-35.487784 67.042338c-7.896032 19.725293-39.421013 19.725293-51.250274 0l-35.487784-67.042338-74.908797-11.829262c-11.829261 0-19.725293-7.896032-23.658522-19.725293s0-19.725293 7.896031-27.591752l55.213077-51.250274-7.896032-78.871599c0-11.829261 3.933229-19.725293 11.829262-27.591752s19.725293-7.896032 31.554554-3.93323l67.042338 35.487784 67.042338-35.487784c3.933229-3.933229 7.896032-3.933229 11.829262-3.933229 7.896032 0 11.829261 3.933229 15.76249 3.933229 7.896032 7.896032 11.829261 15.762491 11.829261 27.591752l-11.829261 74.908797 55.213077 51.250275c3.933229 11.829261 3.933229 23.658522 3.933229 35.487783z m-114.359383-55.213077c-7.896032-7.896032-7.896032-15.762491-7.896032-23.658522l3.93323-35.487784-27.591752 19.725293c-3.933229 3.933229-7.896032 3.933229-11.829262 3.93323s-7.896032 0-11.829261-3.93323l-31.554554-15.76249 3.933229 31.554554c0 7.896032 0 19.725293-7.896032 23.658523l-23.658522 23.658522 35.487784 3.933229c7.896032 0 15.762491 7.896032 19.725293 15.762491l15.76249 31.554554 15.762491-31.554554c3.933229-7.896032 11.829261-11.829261 19.725293-15.762491l35.487784-3.933229-27.591752-23.658522z"
             horiz-adv-x="1024"/>


      <glyph glyph-name="touxiang" unicode="&#59458;"
             d="M511.936 895.36C230.613333 895.36 0.384 665.173333 0.384 383.786667c0-281.344 230.186667-511.530667 511.573333-511.530667 281.344 0 511.530667 230.186667 511.530667 511.552C1023.488 665.152 793.301333 895.36 511.936 895.36z m12.8-153.472c195.029333 0 195.029333-147.072 195.029333-230.186667 0-83.136-76.736-236.586667-195.029333-239.786666-115.114667 0-195.029333 153.450667-195.029333 239.786666 0 83.114667 0 230.186667 195.029333 230.186667z m-12.8-840.853333c-147.072 0-281.344 67.136-370.88 172.650666 12.8 31.957333 28.8 67.136 51.157333 86.314667 47.957333 38.378667 191.829333 102.314667 191.829334 102.314667l89.536-172.650667 16 41.557333-25.6 51.157334 51.157333 51.157333 51.157333-51.157333-22.4-54.336 12.8-41.578667 92.736 169.450667S793.301333 192 841.258667 153.6c22.378667-15.978667 38.357333-44.757333 47.957333-70.336-86.336-111.893333-223.808-182.229333-377.28-182.229333z"
             horiz-adv-x="1024"/>


      <glyph glyph-name="chaxun" unicode="&#59149;"
             d="M736.64 114.176a42.666667 42.666667 0 0 0 8.874667 45.653333A382.506667 382.506667 0 0 1 853.333333 426.666667a384 384 0 1 1-305.408-375.978667c12.288 2.56 24.405333 5.717333 36.352 9.472a42.666667 42.666667 0 0 0 25.514667-81.450667A466.218667 466.218667 0 0 0 469.333333-42.666667C210.133333-42.666667 0 167.466667 0 426.666667S210.133333 896 469.333333 896s469.333333-210.133333 469.333334-469.333333a467.626667 467.626667 0 0 0-104.789334-295.68l169.301334-169.258667c16.768-16.810667 17.024-43.818667 0.256-60.586667-16.682667-16.682667-43.946667-16.384-60.586667 0.213334l-195.626667 195.626666a43.306667 43.306667 0 0 0-10.581333 17.194667z"
             horiz-adv-x="1024"/>


      </font>
</defs>
</svg>
